<?xml version="1.0" encoding="utf-8"?>
<!-- Generator: Adobe Illustrator 16.0.0, SVG Export Plug-In . SVG Version: 6.00 Build 0)  -->
<!DOCTYPE svg PUBLIC "-//W3C//DTD SVG 1.1//EN" "http://www.w3.org/Graphics/SVG/1.1/DTD/svg11.dtd">
<svg version="1.1" id="Calque_1" xmlns="http://www.w3.org/2000/svg" xmlns:xlink="http://www.w3.org/1999/xlink" x="0px" y="0px"
	 width="1558.422px" height="1336.433px" viewBox="0 0 1558.422 1336.433" enable-background="new 0 0 1558.422 1336.433"
	 xml:space="preserve">
<polygon fill="#1781BC" points="468.848,644.708 453.489,890.724 792.396,888.273 958.285,890.857 953.521,758.582 790.695,376.806 
	516.644,423.94 "/>
<path fill="#176AAF" d="M808.202,627.7c5.8,2.8,11.899-3.8,8.3-9.2c-1.3-2.1-2.5-2.6-5.6-2.6c-3.101,0-4.301,0.5-5.601,2.6
	C803.104,621.801,804.402,625.9,808.202,627.7z"/>
<line fill="none" stroke="#FFFFFF" stroke-width="7.1884" stroke-miterlimit="10" x1="502" y1="889.166" x2="792" y2="889.166"/>
<g>
	<path fill="#0B4B68" d="M773.677,508.656l0.436-1.029l0.437-0.949l0.873-1.895l1.748-3.425c0.291-0.589,0.583-1.112,0.874-1.631
		l0.875-1.57l0.876-1.473c0.146-0.246,0.29-0.492,0.448-0.732c0.154-0.234,0.31-0.521,0.466-0.634
		c0.313-0.284,0.628,0.131,0.941,0.239c0.313,0.07,0.626,0.025,0.939,0.043l1.879,0.02l3.759,0.042l-13.047,10.132l0.094-0.679
		l0.058-0.337c0.02-0.116,0.042-0.197,0.064-0.42l0.265-2.279c0.097-0.732,0.161-1.594,0.239-2.399l0.227-2.451
		c0.269-3.326,0.51-6.679,0.708-10.056c0.116-1.682,0.179-3.375,0.271-5.063c0.093-1.689,0.165-3.377,0.222-5.063l0.047-1.265
		l0.024-0.633c-0.009-0.211,0.065-0.42-0.064-0.635c-0.125-0.215-0.338-0.433-0.11-0.637c0.093-0.103,0.296-0.202,0.484-0.302
		l0.564-0.299l2.24-1.201l2.255-1.215l2.484-1.224c0.829-0.411,1.635-0.825,2.572-1.239c0.911-0.415,1.785-0.833,2.788-1.251
		c0.983,0.448,1.838,0.897,2.729,1.35c0.918,0.453,1.704,0.906,2.513,1.363l2.425,1.377l2.195,1.386l2.181,1.4l0.541,0.351
		c0.181,0.117,0.375,0.234,0.46,0.349c0.211,0.229-0.019,0.445-0.159,0.663c-0.146,0.218-0.089,0.443-0.113,0.665l-0.025,0.667
		l-0.05,1.335c-0.061,1.781-0.136,3.559-0.233,5.334c-0.097,1.777-0.163,3.551-0.285,5.33c-0.207,3.55-0.463,7.117-0.754,10.707
		l-0.252,2.731c-0.091,0.921-0.153,1.79-0.278,2.778l-0.34,2.89c-0.02,0.208-0.077,0.554-0.128,0.866l-0.157,0.946l-0.337,1.887
		l-1.825,10.245l-11.223-0.112l-3.333-0.033l-1.666-0.018c-0.278,0.012-0.556-0.04-0.833,0.024c-0.278,0.102-0.554,0.511-0.832,0.22
		c-0.14-0.116-0.28-0.406-0.421-0.643c-0.137-0.247-0.288-0.488-0.438-0.729l-0.897-1.451l-0.897-1.547
		c-0.3-0.511-0.599-1.027-0.898-1.608l-1.798-3.381l-0.9-1.873l-0.45-0.938L773.677,508.656z"/>
</g>
<path fill="#176AAF" d="M821.607,455.686"/>
<path fill="#176AAF" d="M502.152,457.595"/>
<path fill="#1781BC" d="M933.465,793.292c-56.766,46.762-258.479-151.598-325.091-229.605
	c-66.61-78.006-26.765-159.177-17.916-232.18"/>
<path fill="#176AAF" d="M701.402,512c18.3-17.3,24.5-23.3,24.5-23.699c0-0.2-3.5-0.399-7.7-0.399h-7.8l-7.5,7.3
	c-7.601,7.3-36.9,35.2-49.2,46.7c-3.8,3.5-6.8,6.699-6.8,7.1c0,1,7.8,6.101,8.899,5.801c0.5-0.2,9-8,18.8-17.301
	C684.402,528.2,696.502,516.7,701.402,512z"/>
<path fill="#D8D821" d="M790.313,498.747l-375.906-3.606l4.556-33.377l370.4-0.169L790.313,498.747z"/>
<g>
	<path fill="#D8D821" d="M773.277,500.694c5.674,54.944-49.981,105-109.063,85.82c-37.823-12.276-61.737-36.081-62.229-88.421
		c-0.344-36.5,41.656-36.272,81.423-36.272C723.174,461.821,769.74,466.444,773.277,500.694z"/>
	<g>
		<path fill="#D8D821" d="M771.295,499.658c4.447,47.211-35.737,88.853-82.521,89.132c-20.954,0.125-43.842-8.651-59.646-22.432
			c-16.34-14.248-22.919-35.342-24.692-56.335c-0.752-8.906-1.244-18.317,2.995-26.479c3.424-6.592,9.807-10.839,16.493-13.597
			c16.949-6.988,36.999-6.188,54.976-6.226c19.076-0.039,38.433,0.206,57.091,4.635
			C752.781,472.343,769.066,480.906,771.295,499.658c0.175,1.477,4.217,4.188,3.965,2.071
			c-5.178-43.58-68.354-41.868-100.147-41.804c-19.736,0.041-43.312-0.965-60.878,9.564c-18.236,10.93-15.271,34.604-11.865,52.548
			c3.499,18.438,12.426,35.257,26.814,47.439c14.683,12.432,34.477,20.448,53.492,22.647c44.359,5.13,86.435-28.841,92.374-72.7
			c0.794-5.857,0.765-11.82,0.21-17.696C775.121,500.25,771.093,497.517,771.295,499.658z"/>
	</g>
</g>
<path fill="#FFFFFF" d="M734.202,492.9c-0.7,0-4.399,3.399-24.3,22.399c-4.101,4-16.2,15.399-26.801,25.5
	s-18.899,18.699-18.5,19.101c2.399,2,10.801,3.5,19.399,3.5h9.601l5.7-5.5c3.199-3,8.399-8,11.5-11c3.199-3,9.5-9,14.101-13.301
	c9.699-9.101,9.8-9.601,9.899-29C734.902,498.2,734.604,492.9,734.202,492.9z"/>
<path fill="#176AAF" d="M830.902,682.8c0,5.699,8.199,8.5,11.399,3.9c2.101-3,2-5.4-0.399-7.801
	C838.002,675,830.902,677.5,830.902,682.8z"/>
<path fill="#FFFFFF" d="M660.202,487.9h-7.899h-8l-6.199,5.899l-6.2,5.8v7.2c0,5.8,0.3,7,1.399,6.399
	c0.699-0.399,7.101-6.3,14.101-13.101L660.202,487.9z"/>
<path d="M740.402,482.4l-56.801-0.301l-56.8-0.199l0.3,23.199l0.301,23.301l4.1,8.5c7,14.5,16.9,23.399,32.801,29.199
	c7.199,2.7,9.3,3.101,19.101,3.101c9.399,0,12.1-0.399,18.5-2.7c19.199-6.8,31.899-20.1,36.899-38.5c1.899-7,2.101-10.1,1.899-26.8
	L740.402,482.4z M633.303,513.2c-1.101,0.601-1.399-0.601-1.399-6.399v-7.2l6.199-5.8l6.2-5.899h8h7.899l-12.8,12.199
	C640.402,506.9,634.002,512.801,633.303,513.2z M655.803,554.801c-1.101,0.3-8.899-4.801-8.899-5.801c0-0.399,3-3.6,6.8-7.1
	c12.3-11.5,41.601-39.4,49.2-46.7l7.5-7.3h7.8c4.2,0,7.7,0.199,7.7,0.399c0,0.399-6.2,6.399-24.5,23.699
	c-4.9,4.7-17,16.2-26.801,25.5C664.803,546.801,656.303,554.601,655.803,554.801z M734.803,504.601
	c-0.101,19.399-0.2,19.899-9.899,29c-4.601,4.301-10.9,10.301-14.101,13.301c-3.101,3-8.301,8-11.5,11l-5.7,5.5h-9.601
	c-8.6,0-17-1.5-19.399-3.5c-0.399-0.4,7.899-9,18.5-19.101s22.7-21.5,26.801-25.5c19.899-19,23.6-22.399,24.3-22.399
	C734.604,492.9,734.902,498.2,734.803,504.601z"/>
<path d="M809.402,637.9c2.199,0,3,0.899,5.1,5.5c1.301,3.1,2.4,5.899,2.4,6.399s-2.301,1.699-5.101,2.699
	c-2.7,1-5.399,2.301-5.899,2.9c-1,1.3,1.8,8.5,3.399,8.5c0.601,0,3.101-0.9,5.5-2c5.899-2.7,6.699-2.601,8.399,1.899
	c2.101,5.101,2.899,5.5,7.2,3.699c3.899-1.699,4.199-2.699,2-8l-1.601-3.699l3.8-1.5c7.601-3,8.301-3.399,8.301-4.801
	c0-2.899-2.301-6.6-4.101-6.6c-1,0-4.101,0.899-6.899,2c-4.801,1.899-5.101,1.899-5.7,0.199c-0.3-0.899-1.399-3.699-2.399-6.101
	l-1.899-4.3l2.5-2.899c6.3-7.5,3.5-19.801-5.601-24.399c-3.7-2-11.601-1.9-15.399,0.1c-9.4,4.801-12.301,15.301-6.5,23.4
	C799.402,634.4,805.604,637.9,809.402,637.9z M805.303,618.5c1.3-2.1,2.5-2.6,5.601-2.6c3.1,0,4.3,0.5,5.6,2.6
	c3.601,5.4-2.5,12-8.3,9.2C804.402,625.9,803.104,621.801,805.303,618.5z"/>
<path d="M856.502,687c0.2,0.4,3-0.299,6.2-1.5c4.2-1.6,5.7-2.699,5.7-4.199c0-2-1.7-2.301-6.5-1c-2.301,0.602-2.7,0.199-5.2-5.801
	c-1.601-3.6-2.8-7-2.8-7.599c0-1.2-3-1.301-4.801-0.101c-1,0.601-0.399,2.899,2.801,10.2
	C854.202,682.101,856.202,686.701,856.502,687z"/>
<path d="M830.803,673.4c-2.7,1.5-5.899,6.9-5.899,10.199c0,6,8.199,12,14.699,10.801c2.399-0.4,4.2-0.1,5.899,1
	c2.601,1.699,6.5,1.699,7.101,0c0.101-0.6-1-1.9-2.601-2.9c-2.5-1.699-2.8-2.398-2-4.398c1.9-5,1.101-9.199-2.5-12.801
	c-2.8-2.801-4.1-3.398-7.699-3.398C835.402,672,832.202,672.601,830.803,673.4z M842.303,686.701c-3.2,4.6-11.399,1.799-11.399-3.9
	c0-5.301,7.1-7.801,11-3.898C844.303,681.3,844.402,683.701,842.303,686.701z"/>
<path d="M815.803,697.9c-2.2,0-2.899,0.5-2.899,1.9c0,2.299,2.3,3,7,2c4-0.9,6-3.201,6-6.9c0-3.5-2.5-5.699-7.5-6.5
	c-6.5-1.1-6.9-1.301-5.5-3c0.699-0.9,2.399-1.4,3.899-1.301c2,0.201,2.699-0.199,2.899-2c0.3-2-0.101-2.199-3.601-2.199
	c-2.5,0-4.899,0.801-6.601,2.1c-1.5,1.201-2.6,3-2.6,4.5c0,3.102,3.3,6.4,6.399,6.4c1.399,0,3.699,0.5,5.101,1
	c2.3,0.9,2.5,1.301,1.5,2.5C819.202,697.201,817.402,697.9,815.803,697.9z"/>
<g id="XMLID_2_">
	<g>
		<path fill="#134C84" d="M789.519,479.951c0-11.8-0.21-13.899-1.71-15.199c-2.09-1.801-8.29-3.399-8.39-2.101
			c0,0.399,0,7.601,0.1,16c0.091,9.8-0.3,16-1,17.399c-1.1,2-1.1,2.101,3.2,1.399C789.219,496.251,789.519,495.551,789.519,479.951z
			 M408.419,461.951l-2.4,2.5c-2.409,2.301-2.5,2.9-2.5,15.2c0,7,0.4,13.399,0.79,14c0.61,0.899,2.752,0.24,8.652-2.06
			c6.1-2.301,10.258-2.94,17.958-3.44l10.1-0.7l0.29-3.3l0.301-3.2l56.699,0.2l56.711,0.3l0.5,3l0.5,3h15.5
			c17.699,0.101,21,0.9,26.289,6.301c4.711,4.8,5.711,7.8,5.711,16.5c0,9.601,3.199,24.3,6.899,32.3
			c18.101,38.7,64.601,55,103.601,36.399c26.699-12.699,42.5-37.5,42.5-66.699c0-9.101,2.399-12.5,10-14.301c7.899-1.899,8-2.1,8-18
			c0-13.8,0-13.899-2.601-15.899l-2.7-2.101h-180.41H408.419L408.419,461.951z M889.309,523.451c-3.5-9-24.59-50.8-31.199-61.8
			c-18.891-31.3-37.5-55.7-58.591-76.8c-38.71-38.801-80.5-61.801-124-68.4c-12.3-1.9-24.5-3.8-36-1.9
			c-42.3,6.9-87.3,36.101-113.6,85c-4.061,7.551-9.44,19.851-14.061,31.41c-4.631,11.569-8.5,22.391-9.551,26.989h142.11
			c108,0,142.6,0.301,144.6,1.2c0.53,0.24,3.543,3.939,4.443,6.66c-0.239,5.72,0.078,31.18-1.153,32.64c-1.59,1.7-4.09,3-7.79,3.801
			c-6.71,1.5-8,3.5-8,13c-0.1,38.3-29,66.641-68.739,76.67c-14.021,3.54-38.761-0.271-49.561-3.37
			c-23.409-6.899-41.2-21.601-51.2-42.101c-5.3-10.8-7.3-18.699-8.1-32.6c-0.811-12.2-2.7-16.801-8.311-19.601
			c-3.301-1.7-9-1.801-80.59-2.101c-66.301-0.2-78.101,0-85,1.3c-23.78,4.601-51,25.73-45.601,60.301
			c3.189,20.601,19.39,38.601,40.689,44.899c5.409,1.601,14,1.8,97.909,2.3c91.2,0.5,92,0.5,92,2.5s-0.8,2-68.5,2.301
			c-37.6,0.101-67.71-0.5-68.21,0c-2.29,2.399-9.59,79.5-12.29,138.7c-1.6,34.4-3.409,105.6-3.5,132.699v14.801h-2.5h-2.5v-19.5
			v-19.5l-5.909,2.9c-3.189,1.699-9.091,5.5-13.189,8.5c-5.5,4.199-8.2,5.6-10.7,5.6c-3.5,0-7.109-1.5-8.5-3.4
			c-1.609-2.398-4.699-14.6-5.699-22.6c-5.711-46.4,13.09-107.4,44.399-144c6-7.1,6.101-7.5,7.101-23c1.199-18,3.5-43.5,5.09-56.3
			c0.91-7,1.311-13.399,1-14.2c-0.391-1.3-3.689-1.5-20-1.5c-22.301,0-27-0.699-38.301-6.1c-26.789-12.7-40.289-43.301-31-70.2
			c3.41-9.8,8.801-17.8,16.801-25l6.199-5.601l-0.199-16c-0.189-16.8,0.609-20.8,4.609-22.699c1-0.5,22.925,1.039,47.814,0.739
			h44.055l4.431-14.14c17.591-50.5,41.79-88.3,70.29-109.8c9.211-7,19.5-12.9,29.5-16.9c7.801-3.2,24.211-7.6,32.211-8.6
			c1.899-0.3,11.789-0.4,22-0.2c15.59,0.2,20.399,0.7,30.899,3c33.39,7.2,63.5,22,93.8,46.1c12.301,9.801,34.301,31.801,45.2,45.2
			c4.601,5.601,9.3,10.4,10.5,10.7c1.101,0.2,5.5,0.9,9.601,1.5c23.289,3.3,55.59,15.6,76.5,29.2
			c39.5,25.5,66.699,62.101,78.789,105.8c4.11,14.5,7.711,38.5,7.711,50.801c0,4.601-0.41,5.8-2.91,8.199
			c-4.801,4.801-6.891,4.801-17.801-0.5c-12.89-6.3-25.39-10.199-36.59-11.6c-9.109-1.101-24.109-0.5-26.609,1.1
			c-1.09,0.601-0.59,3.9,2.699,16.101c20.11,76.5,31.211,159.201,32.91,247.201l0.59,28.699h-2.699h-2.59V875.15
			c0-42.1-4.211-98.199-11-148.199c-8.711-63.9-27.5-138-47.601-187C893.419,533.651,890.419,526.151,889.309,523.451z
			 M1001.019,607.951c1.7-1.8,1.7-3,0.7-15.7c-0.91-11.5-4.609-33.6-6.609-39.3c-12.591-37.399-24.189-56.7-47.301-79.1
			c-21.89-21.2-46-35.602-76.09-45.301c-5.91-1.899-14.7-4.199-19.7-5.101c-4.909-0.8-10-1.8-11.21-2.1c-3-0.601-2.89,0.1,0.5,4.5
			c8.801,11.3,25.5,38.8,36.41,60.1c13.891,27,24.3,52.101,35.7,86l7.6,22.5l4.5-0.5c2.5-0.3,9.5-0.399,15.5-0.3
			c16.29,0.2,32.2,4.399,48.7,12.8C997.608,610.551,998.608,610.651,1001.019,607.951z M773.108,503.151
			c0.811-1.2,1.109-2.101,0.699-2.101c-11.199,1.7-11.89,2.5-12.59,15.2c-0.7,12.3-3.41,22.5-8.91,32.899
			c-5.89,11.5-19.29,25.101-30.29,31.101c-4.1,2.199-1.6,2.101,4.4-0.2c13.8-5.199,30.3-20.5,37.1-34.5
			c5.091-10.3,6.9-17.601,7.7-30.101C771.519,509.551,772.309,504.551,773.108,503.151z M455.429,724.652
			c0.61-11.5,0.91-21.102,0.61-21.301c-0.44-0.439-1.971,1.109-4.102,3.869c-5.199,6.75-13.96,20.781-19.01,31.131
			c-9.39,19-17,43.1-19.5,61.9c-4.59,33.398,0.11,68.299,8.61,65c0.89-0.4,4.5-2.801,7.89-5.4c2.189-1.619,5.391-3.721,8.49-5.551
			c1.859-1.1,3.67-2.1,5.21-2.85l7.5-3.699l0.609-24.102C452.738,787.05,454.238,747.851,455.429,724.652z"/>
		<path fill="#134C84" d="M1001.844,592.063c1,12.699,0.984,14.687-0.716,16.486c-2.409,2.7-2.526,5.149-10.417,1.049
			c-16.5-8.399-31.71-14.349-48-14.549c-6-0.101-15.266,2.287-17.333,0l-4.726,1.667l-8.855-22.912
			c-11.4-33.899-21.196-59.57-35.086-86.57c-10.91-21.3-20.709-38.551-29.51-49.851c-3.39-4.4-9.268-16.821-6.268-16.22
			c1.211,0.3,6.301,1.3,11.211,2.1c5,0.9,13.789,3.2,19.699,5.101c30.09,9.7,54.2,24.101,76.09,45.301
			c23.11,22.399,34.711,41.699,47.301,79.1C997.233,558.464,1000.934,580.563,1001.844,592.063z"/>
		<path fill="#134C84" d="M794.643,480.664c0.001,0.279-0.069,0.199-0.189-0.16"/>
		<path fill="#1781BC" d="M456.164,703.164c0.3,0.199,0,9.801-0.61,21.301c-1.189,23.199-2.689,62.398-3.689,99l-0.609,24.1
			l-7.5,3.699c-1.54,0.75-3.351,1.75-5.21,2.852l-1.271-2.131l11.329-6.75l3.83-137.91l-0.369-0.289
			C454.193,704.273,455.724,702.724,456.164,703.164z"/>
		<polygon fill="#0B4B68" points="452.434,707.324 448.604,845.234 437.273,851.984 420.604,861.904 445.104,833.404 		"/>
		<path fill="#1781BC" d="M452.434,707.324l-7.33,126.08l-24.5,28.5l16.671-9.92l1.271,2.129c-3.101,1.83-6.301,3.932-8.49,5.551
			c-3.39,2.6-7,5-7.89,5.4c-8.5,3.299-13.2-31.602-8.61-65c2.5-18.801,10.11-42.9,19.5-61.9
			c5.051-10.35,13.811-24.381,19.011-31.131L452.434,707.324z"/>
	</g>
	<g>
		<polyline fill="none" stroke="#1D8EBF" stroke-miterlimit="10" points="448.604,845.234 437.273,851.984 420.604,861.904 
			445.104,833.404 452.434,707.324 448.604,845.234 		"/>
	</g>
</g>
<path fill="#FFFFFF" d="M512.568,829.132"/>
<g>
	<polygon fill="#FFFFFF" points="792.645,893.324 502.877,895.775 508.28,800.283 762.952,784.994 	"/>
	<path fill="#FFFFFF" d="M536.525,691.298c34.044-75.397,131.02-56.114,166.732-11.371"/>
	<path fill="#FFFFFF" d="M724.235,726.904c0,69.68-62.576,166.742-116.332,166.742c-53.757,0-108.092,5.02-103.594-64.514
		c3.548-54.826,16.926-140.457,55.26-163.228C605.785,638.452,724.235,657.225,724.235,726.904z"/>
</g>
<g id="XMLID_1_">
	<g>
		<path fill="#176AAF" d="M738.868,839.578c11.996-0.416,24.114,1.342,35.424,5C762.689,842.029,750.834,839.277,738.868,839.578z"
			/>
		<path fill="#134C84" d="M666.453,863.402c3.841,7.527,5.761,7.527,14.148-0.193c16.677-15.35,33.758-22.492,56.295-23.555
			c0.656-0.039,1.313-0.066,1.972-0.076c11.966-0.301,23.821,2.451,35.424,5c8.308,1.824,14.968,7.211,14.463,4.498
			c0.677,3.455,0.131,0.666,1.021,6.178l-6.771-2.664l-0.021-0.01c-4.396-2.51-23.054-7.51-32.543-8.484
			c-22.235-2.414-44.167,3.969-61.045,17.664c-3.336,2.703-7.479,6.373-9.197,8.109c-2.628,2.605-3.941,3.195-7.479,3.195
			c-7.781,0-9.602-2.221-14.958-18.352c-8.489-25.389-8.187-64.482,0.909-97.498c3.639-13.709,7.58-23.555,14.453-36.674
			c6.468-12.365,12.532-20.658,22.032-30.408l7.275-7.441l4.286-2.027c-0.07-0.057-0.132-0.125-0.202-0.193l14.181-7.691
			c1.546,1.438,2.011,1.854,3.537,3.369l-14.574,9.033c0.323-0.723-0.697-0.047-2.558,1.584l-1.535,0.955
			c-3.438,0-18.192,17.367-25.672,30.021c-7.378,12.637-15.361,33.689-18.799,49.607
			C653.314,803.658,655.538,841.98,666.453,863.402z"/>
		<path fill="#134C84" d="M793.03,881.964c0.707,6.469,1.182,7.857-1.345,7.857c-2.527,0-2.932-3.445-3.709-8.92
			c-1.75-12.395-6.741-28.139-7.954-29.49l2.961,1.168l0.021,0.01c0.374,0.213,0.637,0.406,0.788,0.58l5.983,2.084
			C793.03,881.964,792.504,876.712,793.03,881.964z"/>
		<path fill="#134C84" d="M789.775,855.253l-5.983-2.084c-0.151-0.174-0.414-0.367-0.788-0.58L789.775,855.253z"/>
		<path fill="#176AAF" d="M707.104,686.765c1.858-1.631,2.88-2.307,2.557-1.584L707.104,686.765z"/>
		<path fill="#134C84" d="M705.566,687.72l1.535-0.955c-6.146,5.396-21.457,21.258-27.207,30.979
			C687.374,705.087,702.13,687.72,705.566,687.72z"/>
		<path fill="#134C84" d="M706.719,680.664l-4.286,2.027l4.084-2.221C706.587,680.539,706.646,680.607,706.719,680.664z"/>
		<path fill="#134C84" d="M706.517,680.47l-4.084,2.223l-2.525-2.125c-1.415-1.063-5.457-4.334-8.895-7.145
			c-29.007-23.36-60.942-32.908-92.679-27.705c-33.555,5.503-60.438,34.076-76.609,81.185c-7.095,20.977-13.29,53.123-15.665,77.623
			c-1.719,17.184-3.437,66.125-2.729,75.479l0.708,8.494l-0.041,3.1c-2.324,0-5.013-3.484-5.72-9.566
			c-1.112-10.609,1.313-63.219,4.042-86.291c9.196-77.236,32.947-125.889,71.354-146.354c6.57-3.562,20.113-7.904,27.592-8.978
			C636.204,635.516,674.366,650.574,706.517,680.47z"/>
	</g>
	<g>
		<path fill="none" stroke="#134C84" stroke-width="0.9877" stroke-miterlimit="10" d="M738.868,839.578
			c11.966-0.301,23.821,2.451,35.424,5c8.308,1.824,14.968,7.211,14.463,4.498"/>
		<path fill="none" stroke="#134C84" stroke-width="0.9877" stroke-miterlimit="10" d="M709.659,685.181
			c0.323-0.723-0.697-0.047-2.558,1.584c-6.146,5.396-21.457,21.258-27.207,30.979"/>
		<path fill="none" stroke="#134C84" stroke-width="0.9877" stroke-miterlimit="10" d="M706.517,680.47
			c-32.149-29.895-70.313-44.955-105.252-40.061c-7.479,1.072-21.021,5.416-27.592,8.978
			c-38.405,20.466-62.156,69.119-71.354,146.355c-2.729,23.07-5.154,75.682-4.042,86.291c0.707,6.082,3.396,9.564,5.72,9.564
			l0.041-3.098l-0.708-8.496c-0.707-9.354,1.011-58.295,2.729-75.479c2.375-24.5,8.57-56.646,15.665-77.621
			c16.171-47.109,43.056-75.683,76.609-81.186c31.735-5.203,63.672,4.344,92.679,27.706c3.438,2.811,7.479,6.082,8.895,7.145
			l2.525,2.123"/>
		<path fill="none" stroke="#134C84" stroke-width="0.9877" stroke-miterlimit="10" d="M789.775,855.253
			c-0.891-5.512-0.345-2.723-1.021-6.178"/>
		<path fill="none" stroke="#134C84" stroke-width="0.9877" stroke-miterlimit="10" d="M774.292,844.578
			c-11.31-3.658-23.428-5.416-35.424-5c-0.657,0.01-1.314,0.037-1.972,0.076c-22.537,1.063-39.618,8.205-56.295,23.555
			c-8.389,7.723-10.309,7.723-14.148,0.193c-10.915-21.422-13.139-59.744-5.356-96.053c3.438-15.918,11.421-36.971,18.8-49.607
			c7.479-12.654,22.233-30.021,25.671-30.021l1.536-0.955l2.557-1.584l14.574-9.033c-1.526-1.518-1.991-1.932-3.537-3.369
			l-14.181,7.691l-4.084,2.223l-7.275,7.441c-9.5,9.75-15.564,18.041-22.032,30.408c-6.873,13.117-10.814,22.965-14.453,36.672
			c-9.096,33.016-9.398,72.111-0.909,97.498c5.356,16.131,7.177,18.354,14.958,18.354c3.537,0,4.852-0.59,7.479-3.195
			c1.718-1.738,5.862-5.406,9.197-8.109c16.878-13.697,38.81-20.078,61.045-17.666c9.489,0.977,28.146,5.977,32.543,8.486"/>
		<path fill="none" stroke="#134C84" stroke-width="0.9877" stroke-miterlimit="10" d="M782.983,852.58l-2.962-1.168
			c1.214,1.352,6.205,17.096,7.954,29.49c0.778,5.475,1.184,8.92,3.709,8.92c2.526,0,2.053-1.391,1.346-7.857
			c-0.526-5.252,0,0-3.255-26.711l-6.771-2.664L782.983,852.58z"/>
	</g>
</g>
<g>
	<g>
		<path fill="#1781BC" d="M472.711,605.591c-2.425,19.604-6.642,48.995-9.065,68.6c8.763,38.826,8.104,1.441,8.861-4.695
			c2.425-19.605,16.78-38.549,19.204-58.154c-3.25-4.5-6.504-5.53-14.169-5.75H472.711z"/>
	</g>
</g>
<line fill="none" x1="467.307" y1="671.515" x2="459.473" y2="807.57"/>
<g>
	<line fill="none" x1="467.373" y1="677" x2="461.875" y2="767.003"/>
</g>
<line fill="none" x1="466.827" y1="756.4" x2="469.646" y2="675.568"/>
<polygon fill="#176AAF" stroke="#134C84" stroke-width="6.2668" stroke-miterlimit="10" points="456,890.166 504,890.166 
	456.017,889.833 "/>
<polygon fill="#176AAF" stroke="#134C84" stroke-width="6.2668" stroke-miterlimit="10" points="790,886.371 956.952,888.941 
	904.419,888.775 "/>
<path fill="#1781BC" d="M435.472,492.861c-31.752,0-56.91,22.923-56.91,53.851s21.147,53.567,52.899,53.567"/>
<path fill="#176AAF" d="M519.402,591.758c0,4.414-26.899,9.203-31.17,9.203l-53.864-1.081c-4.271,0-11.966-3.708-11.966-8.122
	v-91.344c0-4.414,10.395-8.453,14.666-8.453h145.164c19.069,0,14.385,20.984,14.385,11.14L519.402,591.758z"/>
<path fill="#1781BC" d="M519.917,591.945c0,4.414-27.25,9.203-31.576,9.203l-56.38-0.87c-4.327,0-10.308-3.919-10.308-8.333v-91.344
	c0-4.414,10.529-8.453,14.856-8.453h147.057c19.318,0,14.57,20.984,14.57,11.14L519.917,591.945z"/>
<path fill="#D8D821" d="M400.794,497.008c1.619-0.796,11.354-4.859,11.354-4.859l10.625-3.183c4.156-1,13.379-9.147,13.379-13.565
	l-6.25-5.579c0-4.418-3.582-8-8-8h-13.25c-6.066-0.228-7.816,2.223-7.816,6.641L400.794,497.008z"/>
<path fill="#1781BC" d="M500.152,459.674c23.25-89.694,82.25-141.683,151.462-147.373c23.267-1.913,135.788,18.235,202.909,141.477"
	/>
<path fill="#1781BC" d="M804.232,427.249c44.428-20.348,79.536,76.293,102.146,136.151c24.817,65.708,62.37,225.625,19.954,237.787"
	/>
<path d="M909.002,689.601c0.102-4.199,0-7.9-0.199-8.102c-0.199-0.199-2.601,1.602-5.301,4c-2.6,2.4-7.5,5.701-10.699,7.201
	s-5.899,3-5.899,3.398c0,0.4,1.399,1.4,3,2.301c1.7,0.9,3,2.1,3,2.9c0,2.5-6.3,10.699-12.7,16.6
	c-5.899,5.301-17,12.699-17.899,11.801c-0.101-0.201-2.801-6.201-5.899-13.301c-3.1-7.1-6-13.4-6.4-13.801c-1-1-7.699,0.9-8.6,2.301
	c-0.301,0.4,2,6.801,5.1,14c3,7.199,5.301,13.699,5.102,14.4c-1.2,3.1-22.801,4.5-33.7,2.199c-9-1.9-10.601-3.199-8.9-6.9
	c0.7-1.5,1-3,0.7-3.299c-0.399-0.301-3.6,0.398-7.3,1.5c-3.9,1.199-9.5,2.1-13.3,2.1h-6.5l6,5.699c3.398,3.201,7.1,7.701,8.199,10
	c1.199,2.4,2.5,4.301,3,4.301s1.399-1.4,2.101-3c1.399-3.5,2.399-3.6,11.7-1.301c4.1,1,11.1,1.602,17.8,1.602
	c28,0.1,51.399-12,68.5-35.602c2.8-4,4.7-5.699,5.7-5.299c0.8,0.299,2.6,0.898,4.1,1.299c2.2,0.5,2.4,0.4,1.8-1.299
	C909.402,700.201,908.902,696.8,909.002,689.601z"/>
<line fill="none" stroke="#000000" stroke-width="4" stroke-miterlimit="10" x1="313.569" y1="385.928" x2="315.569" y2="385.928"/>
<line fill="none" stroke="#000000" stroke-width="7.409" stroke-miterlimit="10" x1="441.001" y1="483.9" x2="559.001" y2="483.9"/>
<polygon fill="#FFFFFF" points="725.902,488.301 656.771,557.9 640.402,545.858 710.402,487.9 "/>
<g>
	<g>
		<path fill="#F7FF00" d="M752.043,476.167c3.141,0,3.503-4.34,0.318-4.34C749.221,471.827,748.858,476.167,752.043,476.167
			L752.043,476.167z"/>
	</g>
</g>
<g>
	<g>
		<path fill="#F7FF00" d="M568.043,476.167c3.141,0,3.503-4.34,0.318-4.34C565.221,471.827,564.858,476.167,568.043,476.167
			L568.043,476.167z"/>
	</g>
</g>
<ellipse transform="matrix(-0.4384 0.8988 -0.8988 -0.4384 1678.1792 440.1316)" fill="#1781BC" cx="701.581" cy="744.375" rx="70.169" ry="31.334"/>
<path fill="#1781BC" d="M656.771,814.736c0,29.592,6.82,53.811,15.132,53.811c8.31,0,14.962-24.219,14.962-53.811
	c0-29.596-8.319-59.336-16.629-59.336C661.926,755.4,656.771,785.142,656.771,814.736z"/>
<path fill="#1781BC" d="M724.235,765.546c-50.376,9.793-49.152,101.689-48.252,100.98c18.726-14.75,26.777-22.643,56.113-26.545
	c28.806-3.832,57.892,15.074,56.306,6.918C785.197,830.404,772.758,756.115,724.235,765.546z"/>
<g>
	<line fill="none" x1="467.826" y1="668.217" x2="461.875" y2="852.9"/>
	<g>
		<path fill="#1781BC" d="M463.373,675.568c-1.603,49.74-3.099,93.297-4.703,143.041c-0.381,11.818-0.762,23.639-1.143,35.457
			c-0.058,1.746,8.603,0.48,8.692-2.33c1.604-49.74,3.206-99.482,4.81-149.227c0.381-11.818,0.762-23.639,1.143-35.458
			c0.057-1.745-4.707-14.478-4.799-11.667L463.373,675.568z"/>
	</g>
</g>
<ellipse fill="#134C84" cx="768.825" cy="381.914" rx="8.923" ry="4.014"/>
<ellipse fill="#134C84" cx="740.832" cy="397.164" rx="6.01" ry="11.236"/>
<ellipse fill="#134C84" cx="778.909" cy="412.855" rx="15.006" ry="7.954"/>
<ellipse fill="#134C84" cx="842.713" cy="855.506" rx="11.812" ry="9.604"/>
<path fill="#134C84" d="M885.902,807.57c11.715,10.184,11.479,21.131,9.99,22.844c-1.488,1.713-10.701,4.67-22.417-5.514
	c-11.715-10.184-21.497-29.652-20.008-31.365C854.958,791.822,874.188,797.386,885.902,807.57z"/>
<ellipse fill="#134C84" cx="827.879" cy="791.358" rx="9.47" ry="17.597"/>
<path fill="#F7FF00" d="M768.534,480.282c0,3.912,7.512,13.952,3.6,13.952l-14.396,3.423c-3.912,0-14.333,30.363-14.333,26.451
	l3.438-40.208c11.146,7.25,4.729-2,22.436-14.451v4.148c3.912,0,3.985,8.058,3.985,11.97L768.534,480.282z"/>
<polyline fill="#F2F2F2" points="408.152,465.584 407.58,488.967 406.455,464.717 414.091,463.65 455.652,464.275 "/>
<g>
	<polygon fill="#A3BFCC" points="661.521,332.339 665.714,326.163 683.152,327.788 668.673,337.102 	"/>
	<polygon fill="#A3BFCC" points="656.19,340.183 660.391,334.008 667.534,338.771 670.235,348.233 	"/>
	<polygon fill="#A3BFCC" points="652.195,326.118 652.195,318.233 663.539,324.708 659.34,330.883 	"/>
	<polygon fill="#A3BFCC" points="638.569,330.883 651.057,327.788 658.209,332.553 654.017,338.727 	"/>
</g>
<g>
	<path fill="#F2F2F2" d="M471.464,465.434c0,0,14.487-0.148,36.218-0.375c21.73-0.184,50.705-0.429,79.681-0.675
		c14.486-0.135,28.975-0.313,42.556-0.361c6.791,0.042,13.355,0.021,19.581,0.11c6.225,0.063,12.11,0.147,17.543,0.251
		c5.433,0.086,10.412,0.243,14.826,0.342c4.414,0.1,8.263,0.208,11.432,0.331c6.338,0.204,9.96,0.378,9.96,0.377v0.302
		c0-0.001-3.622,0.173-9.96,0.377c-3.169,0.123-7.018,0.231-11.432,0.331c-4.414,0.099-9.395,0.256-14.826,0.342
		c-5.433,0.104-11.318,0.188-17.543,0.251c-6.226,0.089-12.79,0.069-19.581,0.111c-13.581-0.051-28.068-0.229-42.556-0.362
		c-28.976-0.246-57.949-0.491-79.681-0.675c-21.729-0.227-36.218-0.375-36.218-0.375V465.434L471.464,465.434z"/>
</g>
<path d="M604.6,366.933c16.101,2.1,34.601-18.2,24.9-27.2c-3.7-3.4-12-3.4-18.601,0c-8.399,4.4-14.801,12.6-14.801,18.9
	C596.1,362.532,600,366.232,604.6,366.933z"/>
<g>
	<path fill="none" d="M491.777,468.463"/>
</g>
<g>
	<path fill="none" d="M414.344,469.4"/>
</g>
<polyline fill="#F2F2F2" points="784.277,469.9 781.652,463.55 786.902,467.15 786.902,493.65 784.257,486.9 "/>
<polyline fill="#F2F2F2" points="768.639,464.65 746.842,463.55 769.531,463.642 770.842,486.555 766.091,490.55 "/>
<polyline fill="#F7FF00" points="767.715,531.4 760.715,547.65 765.314,524.963 769.838,505.193 769.913,518.801 "/>
<polyline fill="#F7FF00" points="747.607,465.812 712.484,466.631 694.78,469.697 721.607,466.631 753.69,471.114 "/>
<polygon fill="#FCFCFC" stroke="#231F20" stroke-miterlimit="10" points="748.578,517.802 757.411,502.228 750.096,486.915 
	757.077,500.274 769.038,479.655 759.577,501.291 779.227,506.073 760.827,504.655 766.582,529.655 758.797,504.655 "/>
<polygon fill="#FCFCFC" stroke="#231F20" stroke-miterlimit="10" points="719.498,472.394 728.331,456.819 721.016,441.507 
	727.997,454.866 739.958,434.247 730.497,455.883 750.146,460.665 731.747,459.247 737.502,484.247 729.717,459.247 "/>
<g>
	<path fill="#F2F2F2" d="M505.387,475.73c0,0-4.748,0.169-11.87,0.422c-7.122,0.229-16.617,0.536-26.113,0.842
		c-4.748,0.16-9.495,0.345-13.947,0.451c-2.228,0.013-4.378,0.069-6.42,0.043c-2.042-0.017-3.972-0.03-5.754-0.043
		c-1.781-0.007-3.416-0.077-4.863-0.105c-1.448-0.031-2.711-0.072-3.751-0.124c-2.08-0.081-3.269-0.159-3.269-0.159l-0.005-0.172
		c0,0,1.187-0.12,3.263-0.272c1.038-0.088,2.298-0.173,3.744-0.255c1.445-0.079,3.076-0.205,4.856-0.274
		c1.78-0.075,3.709-0.157,5.748-0.243c2.04-0.1,4.192-0.116,6.418-0.182c4.453-0.05,9.204-0.031,13.955-0.036
		c9.501-0.025,19.002-0.051,26.127-0.07c7.127,0.005,11.877,0.008,11.877,0.008L505.387,475.73z"/>
</g>
<polygon fill="#F2F2F2" points="461.875,486.234 443.644,486.234 443.644,481.567 488.903,483.9 "/>
<polyline fill="#F2F2F2" points="557.152,486.234 508.902,482.9 518.152,487.234 "/>
<polyline fill="#F2F2F2" points="720.402,567.15 670.235,576.567 722.402,563.4 749.735,533.401 738.402,549.567 "/>
<polyline fill="#F2F2F2" points="757.832,551.324 742.49,567.15 756.474,550.787 762.49,528.15 760.979,539.32 "/>
<polygon fill="#FCFCFC" stroke="#000000" stroke-miterlimit="10" points="419.313,454.242 405.241,462.196 396.949,475.559 
	403.979,463.695 385.26,474.137 403.832,462.111 400.413,451.929 405.775,459.297 421.465,439.631 406.479,460.001 "/>
<polyline fill="#0B4B68" points="451.069,845.068 423.069,861.734 447.569,833.234 454.902,707.15 451.069,845.068 "/>
<path fill="#A3BFCC" d="M1001.882,583.698c10.058,17.487,1.492-142.367-163.1-167.055"/>
<g>
	<g>
		<path fill="#A3BFCC" d="M845.404,418.001c-2.363-0.704-9.749-1.871-11.438-1.984c0.505,0.989,0.967,1.501,1.939,3.333
			c1.359,2.625,4.72,1.058,5.342,1.026c1.953,0.13,0.25,0.187,1.953,0.13c0.708-0.023,1.754-0.302,2.494,0
			c2.354-1.646,5.146-1.395,4.467-1.452L845.404,418.001z"/>
	</g>
</g>
<g>
	<g>
		<path fill="#F7FF00" d="M703.074,470.331c1.383,0,1.979-1.861,0.369-1.861C702.061,468.47,701.463,470.331,703.074,470.331
			L703.074,470.331z"/>
	</g>
</g>
<g>
	<g>
		<path fill="#F7FF00" d="M430.869,470.38c1.383,0,1.979-1.861,0.369-1.861C429.855,468.519,429.258,470.38,430.869,470.38
			L430.869,470.38z"/>
	</g>
</g>
<g>
	<g>
		<path fill="#F7FF00" d="M656.292,472.637c1.383,0,1.979-1.86,0.369-1.86C655.278,470.775,654.681,472.637,656.292,472.637
			L656.292,472.637z"/>
	</g>
</g>
<g>
	<g>
		<path fill="#F7FF00" d="M512.01,475.913c1.383,0,1.98-1.861,0.369-1.861C510.996,474.052,510.398,475.913,512.01,475.913
			L512.01,475.913z"/>
	</g>
</g>
<polyline fill="#F7FF00" points="755.488,551.324 740.146,567.15 754.13,550.787 760.146,528.15 758.634,539.32 "/>
<g>
	<polyline fill="#F7FF00" points="619.341,551.483 652.5,576.765 670.235,575.733 	"/>
	<polyline fill="#F7FF00" points="639.674,563.929 669.2,582.515 687.722,583.681 	"/>
</g>
<polyline fill="#F7FF00" points="718.565,571.111 687.485,584.215 671.565,579.694 "/>
<polyline fill="#F7FF00" points="426.485,486.234 416.235,488.15 411.185,485.233 410.647,472.817 415.402,485.317 "/>
<polyline fill="#F7FF00" points="416.024,481.65 436.946,484.663 431.325,480.649 421.696,473.997 427.107,480.733 "/>
<polyline fill="#F7FF00" points="410.514,473.344 412.18,466.791 423.903,467.639 "/>
<g>
	<g>
		<path fill="#F7FF00" d="M600.095,479.854c3.646,0,7.653-1.829,7.956-5.964c0.273-3.741-3.352-7.057-7.005-7.057
			c-3.645,0-7.653,1.829-7.956,5.963C592.816,476.539,596.441,479.854,600.095,479.854L600.095,479.854z"/>
	</g>
</g>
<g>
	<g>
		<path fill="#F7FF00" d="M616.077,495.07c3.141,0,3.503-4.34,0.317-4.34C613.255,490.73,612.893,495.07,616.077,495.07
			L616.077,495.07z"/>
	</g>
</g>
<g>
	<g>
		<path fill="#F7FF00" d="M615.761,527.867c3.646,0,7.653-1.829,7.956-5.963c0.273-3.742-3.352-7.058-7.005-7.058
			c-3.645,0-7.653,1.829-7.956,5.963C608.482,524.553,612.107,527.867,615.761,527.867L615.761,527.867z"/>
	</g>
</g>
<polyline fill="#F7FF00" points="482.845,467.416 450.697,472.787 429.902,469.821 456.845,468.235 546.903,473.344 "/>
<path fill="#134C84" d="M1002.523,584.602c10.361,17.579-5.042-144.007-170.038-166.159"/>
<path fill="#D8D821" d="M758.214,594.515"/>
<g>
	<path fill="#0B4B68" d="M776.104,522.9c0,0,0.034,0.494,0.097,1.42c0.047,0.928,0.186,2.275,0.105,4.027
		c-0.002,1.757-0.152,3.876-0.498,6.298c-0.365,2.415-0.872,5.154-1.813,8.034c-0.852,2.912-2.096,5.973-3.669,9.084
		c-1.561,3.122-3.525,6.251-5.79,9.317c-0.586,0.751-1.177,1.509-1.772,2.272c-0.607,0.753-1.27,1.468-1.91,2.211
		c-0.634,0.75-1.314,1.463-2.01,2.169c-0.701,0.7-1.369,1.444-2.118,2.105c-2.869,2.791-6.081,5.29-9.382,7.636
		c-3.313,2.339-6.839,4.345-10.378,6.157c-0.894,0.436-1.783,0.869-2.669,1.301c-0.892,0.416-1.802,0.781-2.694,1.17
		c-1.775,0.799-3.595,1.423-5.359,2.09c-3.574,1.217-7.076,2.236-10.446,2.965c-0.841,0.187-1.67,0.371-2.487,0.553
		c-0.823,0.148-1.633,0.293-2.431,0.437c-1.591,0.296-3.146,0.474-4.632,0.666c-1.482,0.211-2.915,0.324-4.274,0.429
		c-1.357,0.119-2.649,0.17-3.863,0.202c-2.421,0.131-4.539,0.038-6.272,0.01c-1.734-0.03-3.096-0.195-4.021-0.243
		c-0.924-0.076-1.417-0.116-1.417-0.116s1.96-0.231,5.392-0.635c1.707-0.244,3.775-0.504,6.126-0.92
		c1.178-0.187,2.426-0.401,3.731-0.692c1.307-0.274,2.688-0.501,4.105-0.863c1.422-0.336,2.904-0.661,4.413-1.107
		c0.758-0.202,1.529-0.407,2.311-0.615c0.775-0.234,1.561-0.472,2.358-0.712c3.194-0.941,6.471-2.193,9.836-3.504
		c3.331-1.403,6.731-2.933,10.063-4.722c3.309-1.819,6.646-3.724,9.757-5.955c3.132-2.193,6.167-4.532,8.935-7.075
		c2.759-2.548,5.358-5.188,7.635-7.949c2.243-2.781,4.332-5.556,6.011-8.385c1.662-2.831,3.141-5.587,4.236-8.257
		c0.273-0.667,0.576-1.311,0.809-1.961c0.233-0.652,0.461-1.289,0.683-1.909c0.495-1.231,0.786-2.451,1.144-3.581
		c0.376-1.127,0.535-2.224,0.812-3.218c0.272-0.999,0.408-1.925,0.563-2.767c0.329-1.675,0.484-3.039,0.595-3.956
		C776.038,523.391,776.104,522.9,776.104,522.9z"/>
</g>
<g>
	<path fill="#0B4B68" d="M776.217,514.284c0,0,0.074,0.522,0.214,1.5c0.12,0.982,0.383,2.401,0.421,4.269
		c0.134,1.868,0.112,4.131-0.071,6.729c-0.222,2.591-0.586,5.529-1.367,8.656c-0.192,0.783-0.388,1.583-0.588,2.398
		c-0.247,0.802-0.499,1.619-0.755,2.45c-0.471,1.683-1.215,3.323-1.867,5.06c-1.494,3.382-3.169,6.94-5.381,10.334
		c-2.175,3.408-4.626,6.823-7.475,9.979c-2.814,3.183-5.895,6.231-9.234,8.967c-3.333,2.739-6.832,5.29-10.498,7.436
		c-1.789,1.145-3.686,2.072-5.513,3.062c-1.892,0.866-3.711,1.822-5.606,2.53c-3.709,1.601-7.476,2.673-11.031,3.641
		c-1.808,0.379-3.541,0.846-5.256,1.111c-1.719,0.243-3.359,0.567-4.964,0.681c-3.187,0.371-6.129,0.442-8.721,0.401
		c-1.298-0.048-2.508-0.05-3.625-0.132c-1.114-0.112-2.137-0.215-3.061-0.309c-0.46-0.048-0.895-0.094-1.305-0.137
		c-0.407-0.07-0.789-0.136-1.144-0.197c-0.708-0.124-1.31-0.228-1.798-0.313c-0.971-0.178-1.489-0.272-1.489-0.272
		s0.528-0.005,1.517-0.014c0.492-0.001,1.099-0.002,1.813-0.003c0.712,0.007,1.529,0.001,2.445-0.058
		c0.912-0.044,1.922-0.093,3.021-0.146c1.093-0.102,2.275-0.212,3.538-0.331c1.261-0.082,2.589-0.347,3.989-0.542
		c1.403-0.175,2.859-0.49,4.377-0.784c3.036-0.604,6.259-1.521,9.633-2.543c3.333-1.165,6.822-2.447,10.28-4.114
		c1.758-0.767,3.457-1.731,5.219-2.612c1.694-1.011,3.464-1.935,5.139-3.049c3.414-2.122,6.712-4.542,9.846-7.15
		c3.176-2.563,6.09-5.431,8.829-8.362c2.753-2.925,5.176-6.056,7.385-9.176c2.222-3.12,4.052-6.341,5.691-9.451
		c0.735-1.592,1.525-3.118,2.122-4.662c0.32-0.766,0.634-1.518,0.943-2.256c0.264-0.756,0.523-1.497,0.777-2.224
		c1.003-2.914,1.702-5.665,2.229-8.131c0.458-2.474,0.834-4.662,0.968-6.469c0.216-1.806,0.245-3.269,0.283-4.252
		C776.192,514.81,776.217,514.284,776.217,514.284z"/>
</g>
<g>
	<path fill="#0B4B68" d="M777.623,522.216c0,0,0.137,0.45,0.394,1.292c0.12,0.422,0.268,0.943,0.441,1.555
		c0.081,0.308,0.193,0.63,0.267,0.99c0.066,0.364,0.136,0.751,0.209,1.16c0.145,0.821,0.318,1.751,0.436,2.761
		c0.096,1.002,0.159,2.094,0.242,3.274c0.031,1.174-0.031,2.424-0.052,3.762c-0.102,1.322-0.264,2.716-0.457,4.177
		c-0.521,2.88-1.225,6.039-2.482,9.192c-0.147,0.399-0.296,0.802-0.445,1.207c-0.164,0.398-0.353,0.785-0.531,1.183
		c-0.365,0.793-0.735,1.596-1.108,2.407c-0.838,1.566-1.69,3.194-2.713,4.732c-1.957,3.15-4.326,6.167-6.967,8.981
		c-1.309,1.424-2.692,2.784-4.131,4.097c-0.719,0.655-1.474,1.267-2.212,1.903c-0.734,0.642-1.493,1.25-2.266,1.838
		c-3.08,2.376-6.32,4.506-9.631,6.361c-0.829,0.459-1.655,0.917-2.476,1.373c-0.843,0.411-1.682,0.82-2.515,1.226
		c-1.663,0.816-3.344,1.535-5.005,2.213c-3.337,1.32-6.617,2.429-9.781,3.263c-1.572,0.444-3.133,0.768-4.626,1.11
		c-1.508,0.294-2.966,0.559-4.366,0.789c-1.415,0.175-2.756,0.377-4.042,0.502c-1.294,0.095-2.509,0.212-3.657,0.27
		c-2.304,0.082-4.3,0.102-5.95,0.008c-1.64-0.031-2.938-0.228-3.811-0.298c-0.875-0.092-1.34-0.162-1.34-0.162
		s0.442-0.162,1.271-0.466c0.828-0.286,2.038-0.7,3.555-1.259c1.521-0.528,3.346-1.219,5.418-1.986
		c1.026-0.403,2.119-0.831,3.271-1.282c1.136-0.466,2.331-0.957,3.578-1.468c2.47-1.063,5.122-2.214,7.861-3.538
		c2.756-1.281,5.583-2.769,8.475-4.313c2.861-1.604,5.792-3.277,8.652-5.13c2.849-1.867,5.725-3.775,8.4-5.916
		c2.729-2.07,5.327-4.291,7.732-6.604c0.615-0.568,1.207-1.152,1.77-1.753c0.574-0.592,1.17-1.164,1.723-1.763
		c1.078-1.219,2.169-2.41,3.154-3.645c1.054-1.195,1.887-2.496,2.844-3.697c0.827-1.269,1.718-2.487,2.433-3.749
		c0.372-0.625,0.76-1.237,1.11-1.855c0.323-0.628,0.639-1.251,0.973-1.859c0.165-0.306,0.327-0.609,0.488-0.91
		c0.14-0.309,0.278-0.616,0.415-0.919c0.281-0.611,0.556-1.21,0.826-1.797c0.499-1.191,0.927-2.361,1.368-3.478
		c0.371-1.145,0.722-2.23,1.052-3.25c0.275-1.041,0.518-2.027,0.781-2.946c0.225-0.915,0.36-1.758,0.542-2.537
		c0.368-1.543,0.5-2.861,0.652-3.715C777.542,522.679,777.623,522.216,777.623,522.216z"/>
</g>
<g>
	<path fill="#0B4B68" d="M777.198,507.64c0,0,0.152,0.261,0.399,0.754c0.226,0.487,0.605,1.251,0.949,2.213
		c0.371,0.967,0.745,2.153,1.111,3.53c0.362,1.376,0.695,2.941,0.97,4.658c0.541,3.433,0.833,7.482,0.613,11.818
		c-0.068,2.172-0.327,4.408-0.664,6.674c-0.381,2.262-0.835,4.556-1.486,6.819c-0.629,2.265-1.413,4.503-2.33,6.66
		c-0.917,2.156-1.981,4.229-3.181,6.148c-0.59,0.96-1.222,1.892-1.856,2.774c-0.695,0.86-1.31,1.728-2.023,2.502
		c-1.399,1.565-2.832,2.944-4.289,4.065c-1.434,1.137-2.871,2.026-4.183,2.702c-0.675,0.319-1.272,0.642-1.867,0.874
		c-0.605,0.22-1.149,0.422-1.649,0.579c-0.487,0.176-0.943,0.291-1.352,0.361c-0.397,0.08-0.736,0.147-1.01,0.203
		c-0.545,0.103-0.839,0.136-0.839,0.136s0.181-0.237,0.521-0.682c0.336-0.439,0.854-1.024,1.423-1.836
		c0.286-0.389,0.603-0.82,0.948-1.29c0.316-0.477,0.659-0.992,1.024-1.542c0.37-0.526,0.714-1.135,1.081-1.75
		c0.38-0.599,0.741-1.261,1.102-1.949c0.385-0.663,0.739-1.392,1.099-2.134c0.384-0.72,0.716-1.521,1.082-2.304
		c0.343-0.799,0.695-1.619,1.055-2.458c0.295-0.879,0.702-1.702,1.005-2.61c0.647-1.786,1.29-3.641,1.898-5.555
		c0.611-1.912,1.204-3.874,1.751-5.866c0.58-1.979,1.083-3.999,1.616-5.985c0.509-2.011,1.009-3.989,1.494-5.904
		c0.979-3.918,1.894-7.575,2.677-10.709c0.822-3.184,1.537-5.887,2.064-7.813C776.89,508.761,777.198,507.64,777.198,507.64z"/>
</g>
</svg>
