<?xml version="1.0" encoding="utf-8"?>
<!-- Generator: Adobe Illustrator 16.0.0, SVG Export Plug-In . SVG Version: 6.00 Build 0)  -->
<!DOCTYPE svg PUBLIC "-//W3C//DTD SVG 1.1//EN" "http://www.w3.org/Graphics/SVG/1.1/DTD/svg11.dtd">
<svg version="1.1" id="Capa_1" xmlns="http://www.w3.org/2000/svg" xmlns:xlink="http://www.w3.org/1999/xlink" x="0px" y="0px"
	 width="588.6px" height="588.6px" viewBox="0 0 588.6 588.6" enable-background="new 0 0 588.6 588.6" xml:space="preserve">
<g>
	<g>
		<path d="M359.034,537.786c0.771,0.042,1.553,0.115,2.344,0.115h178.198c20.842,0,37.802-16.959,37.802-37.802V87
			c0-20.838-16.96-37.8-37.802-37.8H361.378c-0.786,0-1.571,0.069-2.344,0.114V0L11.222,46.419v494.563L359.034,588.6V537.786z
			 M359.034,71.033c0.771-0.113,1.54-0.232,2.344-0.232h178.198c8.935,0,16.199,7.267,16.199,16.2v413.1
			c0,8.936-7.267,16.2-16.199,16.2H361.378c-0.799,0-1.571-0.127-2.344-0.242V71.033L359.034,71.033z M67.37,329.626
			c-11.749-0.311-23.226-3.881-28.917-7.451l4.63-20.449c6.17,3.526,15.723,7.129,25.671,7.299
			c10.811,0.188,16.577-4.534,16.577-11.859c0-6.982-4.989-11.011-17.495-15.881c-17.064-6.455-28.033-16.569-28.033-32.537
			c0-18.736,14.462-33.452,38.833-34.096c11.852-0.319,20.669,2.133,27.01,5.002l-5.389,20.735
			c-4.271-2.123-11.805-5.163-22.088-4.989c-10.188,0.166-15.082,5.194-15.082,10.956c0,7.08,5.822,10.17,19.28,15.56
			c18.668,7.288,27.565,17.705,27.565,33.693C109.94,314.614,96.143,330.392,67.37,329.626z M223.928,352.565
			c-16.82-5.51-30.663-11.021-46.013-18.082c-2.545-1.106-5.255-1.697-7.944-1.945c-25.315-2.389-48.463-21.932-48.463-59.144
			c0-34.167,20.838-60.428,54.366-61.314c35.419-0.934,55.305,26.24,55.305,58.898c0,27.162-12.538,46.093-28.073,52.8v0.707
			c9.049,2.843,19.24,5.211,28.614,7.394L223.928,352.565z M327.586,334.722l-78.467-2.031V212.119l27.918-0.72v98.838l50.549,0.822
			V334.722z"/>
		<path d="M175.204,233.06c-17.463,0.303-27.411,17.922-27.411,39.49c-0.177,21.909,10.114,38.857,27.23,39.164
			c17.563,0.307,27.917-16.533,27.917-39.675C202.942,250.475,192.934,232.756,175.204,233.06z"/>
	</g>
	<text transform="matrix(1 0 0 1 370.8 424.2998)" font-family="'MyriadPro-Regular'" font-size="400">?</text>
</g>
</svg>
