<?xml version="1.0" standalone="no"?>
<!DOCTYPE svg PUBLIC "-//W3C//DTD SVG 20010904//EN"
 "http://www.w3.org/TR/2001/REC-SVG-20010904/DTD/svg10.dtd">
<svg version="1.0" xmlns="http://www.w3.org/2000/svg"
 width="947.000000pt" height="716.000000pt" viewBox="0 0 947.000000 716.000000"
 preserveAspectRatio="xMidYMid meet">

<g transform="translate(0.000000,716.000000) scale(0.100000,-0.100000)"
fill="#000000" stroke="none">
<path d="M4150 5813 c-80 -10 -244 -54 -322 -86 -100 -40 -203 -99 -295 -169
-285 -215 -527 -593 -703 -1098 l-40 -115 -452 -5 c-249 -3 -461 -9 -471 -14
-40 -19 -48 -59 -46 -227 l2 -160 -62 -56 c-80 -72 -134 -152 -168 -250 -93
-269 42 -575 310 -702 113 -54 160 -61 383 -61 163 0 196 -2 200 -15 3 -8 -1
-72 -10 -142 -16 -128 -39 -383 -51 -563 -10 -155 -11 -159 -71 -230 -313
-366 -501 -976 -444 -1440 10 -80 41 -202 57 -226 14 -19 50 -34 85 -34 25 0
52 14 107 56 41 30 100 68 132 85 l59 29 0 -195 0 -195 25 0 25 0 0 148 c1
271 19 983 35 1327 27 592 90 1353 113 1377 5 5 316 9 692 10 677 3 685 3 685
23 0 20 -8 20 -920 25 -839 5 -925 7 -979 23 -213 63 -375 243 -407 449 -43
276 161 546 456 603 69 13 187 15 850 13 716 -3 773 -4 806 -21 56 -28 75 -74
83 -196 8 -139 28 -218 81 -326 100 -205 278 -352 512 -421 108 -31 316 -43
465 -25 407 48 717 375 718 758 0 95 13 115 80 130 37 8 62 21 78 38 21 25 22
35 22 176 0 164 -8 196 -55 217 -20 9 -366 12 -1446 12 l-1421 0 7 33 c21 92
148 400 229 551 263 489 598 762 1021 831 115 19 352 19 475 0 435 -66 853
-296 1240 -684 211 -211 397 -455 586 -768 66 -110 277 -528 312 -618 11 -27
41 -102 66 -165 201 -490 389 -1231 476 -1870 68 -500 110 -1061 110 -1482 l0
-168 26 0 27 0 -6 287 c-17 880 -128 1707 -329 2472 -33 122 -38 155 -27 161
25 16 175 22 266 11 112 -14 237 -53 366 -116 109 -53 130 -53 178 -5 25 24
29 36 29 82 0 123 -36 363 -77 508 -121 437 -393 803 -788 1058 -209 136 -532
259 -765 292 -41 6 -85 13 -96 15 -12 3 -59 51 -105 107 -109 134 -329 354
-452 452 -303 241 -604 389 -938 461 -105 23 -153 28 -309 30 -102 2 -201 1
-220 -2z m2195 -1128 c50 -9 138 -32 197 -51 301 -97 542 -241 761 -453 231
-224 347 -417 473 -791 20 -57 57 -278 66 -393 10 -127 10 -139 -7 -157 -24
-27 -34 -26 -113 15 -165 84 -324 126 -487 128 -60 1 -130 0 -155 -3 l-45 -5
-76 225 c-114 339 -218 590 -357 860 -109 213 -276 488 -364 601 -34 44 -35
51 -5 45 12 -3 63 -13 112 -21z m-801 -406 c26 -20 26 -21 26 -159 0 -159 -1
-161 -80 -180 -76 -18 -100 -52 -100 -143 0 -292 -158 -540 -425 -667 -390
-186 -855 -23 -1036 364 -37 80 -69 227 -69 323 0 87 -10 117 -57 165 -53 54
-86 62 -263 63 l-155 0 -5 30 -5 30 -567 3 -567 2 -3 -32 -3 -33 -101 -7 c-77
-5 -119 -14 -180 -37 -59 -23 -80 -27 -86 -18 -4 6 -8 70 -8 140 0 123 1 129
25 152 l24 25 1804 0 1804 0 27 -21z m159 -7 c15 -13 17 -34 17 -152 0 -156
-3 -163 -78 -175 -43 -7 -43 -6 -32 14 7 14 11 76 10 174 -1 84 -1 156 -1 160
1 13 63 -3 84 -21z m-147 -384 c-8 -14 -16 -64 -19 -123 -8 -125 -26 -198 -77
-301 -68 -140 -233 -293 -371 -345 -60 -23 -85 -24 -44 -2 110 60 244 196 303
311 55 104 82 206 89 329 7 127 14 135 126 152 4 0 1 -9 -7 -21z m-3165 -2215
c-12 -232 -27 -624 -37 -990 l-6 -241 -75 -37 c-41 -20 -102 -58 -137 -84 -34
-26 -70 -50 -79 -54 -85 -33 -132 316 -86 650 25 188 101 429 195 619 71 146
216 365 231 350 3 -2 0 -98 -6 -213z"/>
<path d="M4062 3878 l3 -233 41 -85 c70 -145 169 -234 328 -292 72 -27 93 -31
191 -31 94 0 121 4 185 27 192 68 319 201 369 385 19 70 21 101 19 268 l-3
188 -568 3 -568 2 3 -232z m203 50 c-70 -68 -134 -127 -141 -131 -11 -6 -14 6
-14 64 l0 72 62 58 62 59 80 0 79 0 -128 -122z m785 118 c0 -4 -62 -64 -245
-237 -49 -47 -170 -162 -268 -255 -98 -93 -183 -171 -188 -173 -11 -3 -89 48
-89 58 0 4 30 36 68 71 123 115 416 394 492 467 l75 73 78 0 c42 0 77 -2 77
-4z m89 -163 c-1 -194 -2 -199 -99 -290 -46 -43 -109 -103 -141 -133 -31 -30
-83 -80 -115 -110 l-57 -55 -96 0 c-86 0 -170 15 -194 35 -4 4 79 90 185 191
106 101 227 215 268 255 199 190 236 224 243 224 4 0 7 -53 6 -117z"/>
<path d="M3798 5545 c-84 -44 -148 -126 -148 -189 0 -39 39 -76 85 -83 161
-21 346 182 249 272 -37 34 -120 34 -186 0z"/>
<path d="M5825 2854 c-94 -48 -123 -153 -65 -234 25 -35 87 -70 125 -70 22 0
30 -9 51 -55 13 -31 24 -59 24 -64 0 -5 -23 -17 -51 -27 -27 -10 -54 -23 -59
-29 -10 -13 18 -85 34 -85 6 0 31 9 55 20 59 27 67 26 84 -19 21 -51 29 -55
72 -37 39 17 42 27 20 80 l-16 37 38 15 c76 30 83 34 83 48 0 29 -23 66 -41
66 -10 0 -41 -9 -69 -20 -48 -19 -51 -19 -57 -2 -3 9 -14 37 -24 61 l-19 43
25 29 c63 75 35 198 -56 244 -37 20 -116 19 -154 -1z m131 -110 c36 -54 -25
-120 -83 -92 -38 18 -51 59 -29 92 13 21 25 26 56 26 31 0 43 -5 56 -26z"/>
<path d="M3713 2570 c-74 -11 -208 -56 -273 -93 -380 -212 -615 -716 -706
-1516 -27 -239 -51 -784 -40 -894 7 -63 9 -67 32 -67 l25 0 -7 88 c-7 97 10
604 27 782 24 259 91 606 155 804 160 488 426 784 758 841 314 54 630 -45 917
-287 34 -29 74 -63 88 -74 l25 -22 -72 -77 c-94 -101 -154 -187 -218 -315 -68
-136 -107 -238 -143 -380 -90 -342 -93 -747 -9 -1010 53 -167 71 -190 148
-190 35 0 48 6 74 33 17 18 58 56 91 84 167 142 384 208 604 183 102 -11 311
-71 330 -94 12 -14 35 -159 47 -288 6 -75 7 -78 32 -78 25 0 25 0 18 67 -8 84
-43 322 -62 423 -94 505 -268 952 -514 1320 -357 533 -870 827 -1327 760z
m1113 -572 c329 -389 547 -886 680 -1545 5 -28 6 -28 -81 2 -118 40 -245 58
-370 51 -223 -11 -392 -85 -557 -244 -83 -80 -102 -80 -140 -2 -108 222 -130
619 -53 995 34 165 113 383 186 514 74 131 220 311 254 311 6 0 43 -37 81 -82z"/>
<path d="M6482 2331 c-10 -6 -4 -29 28 -102 23 -51 43 -97 46 -100 2 -4 30 3
62 15 42 16 57 27 57 42 0 20 -17 23 -65 10 -23 -6 -27 -2 -52 58 -16 36 -28
70 -28 76 0 12 -30 13 -48 1z"/>
<path d="M6299 2265 c-27 -15 -59 -69 -59 -102 0 -60 82 -120 147 -108 24 4
42 1 59 -10 26 -17 65 -17 71 0 1 6 -10 19 -26 29 -25 17 -28 24 -20 44 19 50
11 92 -25 128 -28 28 -41 34 -77 34 -24 -1 -56 -7 -70 -15z m111 -55 c24 -24
25 -48 4 -78 -32 -46 -114 -18 -114 39 0 53 71 78 110 39z"/>
<path d="M6086 2179 c-15 -12 -26 -30 -26 -45 0 -31 33 -64 64 -64 14 0 37 -5
51 -10 23 -9 25 -13 15 -25 -7 -8 -25 -15 -41 -15 -22 0 -29 -5 -29 -19 0 -23
23 -30 70 -20 40 9 60 32 60 69 0 35 -25 57 -75 65 -65 11 -69 13 -55 30 7 9
24 14 39 13 20 -2 27 2 29 20 3 20 -1 22 -36 22 -25 0 -49 -8 -66 -21z"/>
<path d="M6826 2074 c-26 -24 -75 -57 -107 -72 -32 -15 -59 -30 -59 -34 0 -4
14 -14 30 -23 17 -9 30 -21 30 -29 0 -25 -63 -107 -127 -166 -59 -53 -170
-127 -179 -118 -1 2 -28 62 -59 133 -31 71 -60 134 -64 138 -10 10 -77 -9 -86
-23 -3 -4 20 -68 51 -140 30 -72 53 -137 51 -144 -12 -31 -228 -45 -337 -22
-90 19 -106 32 -89 69 7 15 10 30 7 33 -4 3 -36 -4 -73 -15 -39 -12 -95 -21
-133 -21 l-65 0 60 -57 c34 -32 71 -77 82 -100 12 -24 25 -43 30 -43 5 0 14
14 21 30 14 35 24 36 117 13 41 -10 111 -16 178 -16 280 -1 514 120 685 356
28 40 47 57 57 53 8 -3 26 -9 41 -13 22 -5 24 -4 18 13 -21 51 -26 85 -25 157
1 42 0 79 -2 81 -2 2 -26 -16 -53 -40z"/>
<path d="M5826 2044 c-3 -26 -6 -60 -6 -75 0 -16 -3 -29 -6 -29 -3 0 -32 21
-65 46 -33 25 -63 43 -66 40 -6 -6 32 -204 41 -213 2 -3 14 -2 26 2 19 6 21
12 15 42 -3 19 -9 42 -12 51 -4 10 12 1 39 -20 26 -21 51 -38 57 -38 6 0 11
15 12 33 1 17 4 42 7 55 7 21 8 20 32 -18 28 -45 29 -45 54 -27 16 12 14 19
-34 91 -28 42 -54 84 -57 92 -11 30 -30 13 -37 -32z"/>
<path d="M6043 2063 c-7 -2 -13 -15 -13 -28 0 -32 -14 -38 -34 -16 -18 20 -56
18 -56 -3 0 -7 18 -27 41 -46 40 -32 41 -33 37 -89 -3 -50 -1 -56 17 -56 24 0
33 45 34 168 1 75 -1 81 -26 70z"/>
</g>
</svg>
