<?xml version="1.0" encoding="utf-8"?>
<!-- Generator: Adobe Illustrator 16.0.0, SVG Export Plug-In . SVG Version: 6.00 Build 0)  -->
<!DOCTYPE svg PUBLIC "-//W3C//DTD SVG 1.1//EN" "http://www.w3.org/Graphics/SVG/1.1/DTD/svg11.dtd">
<svg version="1.1" id="Calque_1" xmlns="http://www.w3.org/2000/svg" xmlns:xlink="http://www.w3.org/1999/xlink" x="0px" y="0px"
	 width="633.638px" height="585.785px" viewBox="371.919 307.882 633.638 585.785"
	 enable-background="new 371.919 307.882 633.638 585.785" xml:space="preserve">
<line fill="none" stroke="#000000" stroke-width="4" stroke-miterlimit="10" x1="311.764" y1="383.819" x2="313.764" y2="383.819"/>
<g>
	<polygon fill="#1781BC" points="465.71,640.684 450.352,886.701 789.259,884.25 955.147,886.833 950.384,754.558 787.558,372.78 
		513.507,419.915 	"/>
	<path fill="#176AAF" d="M806.397,625.592c5.8,2.8,11.9-3.8,8.3-9.2c-1.3-2.1-2.5-2.6-5.6-2.6c-3.101,0-4.3,0.5-5.601,2.6
		C801.298,619.692,802.598,623.792,806.397,625.592z"/>
	<line fill="none" stroke="#FFFFFF" stroke-width="7.1884" stroke-miterlimit="10" x1="502" y1="889.166" x2="792" y2="889.166"/>
	<path fill="#176AAF" d="M819.802,453.577"/>
	<path fill="#176AAF" d="M500.348,455.486"/>
	<path fill="#1781BC" d="M927.765,792.121c-56.766,46.764-258.479-151.597-325.09-229.604
		c-66.611-78.006-26.766-159.177-17.918-232.18"/>
	<path fill="#176AAF" d="M699.598,509.892c18.3-17.3,24.5-23.3,24.5-23.699c0-0.2-3.5-0.399-7.7-0.399h-7.8l-7.5,7.3
		c-7.601,7.3-36.9,35.2-49.2,46.7c-3.8,3.5-6.8,6.699-6.8,7.1c0,1,7.8,6.101,8.899,5.801c0.5-0.2,9-8,18.801-17.301
		C682.598,526.092,694.697,514.592,699.598,509.892z"/>
	<path fill="#F7FF00" d="M788.509,496.639l-375.907-3.606l4.9-35.894l370.056,2.348L788.509,496.639z"/>
	<path fill="#F7FF00" d="M771.848,498.586c5.674,54.944-49.981,105-109.063,85.82c-37.823-12.276-61.736-36.081-62.229-88.421
		c-0.344-36.5,41.656-36.272,81.423-36.272C721.744,459.713,768.311,464.336,771.848,498.586z"/>
	<path fill="#FFFFFF" d="M732.397,490.792c-0.7,0-4.399,3.399-24.3,22.399c-4.101,4-16.2,15.399-26.8,25.5
		c-10.602,10.101-18.9,18.699-18.5,19.101c2.398,2,10.8,3.5,19.398,3.5h9.602l5.699-5.5c3.199-3,8.399-8,11.5-11
		c3.199-3,9.5-9,14.101-13.301c9.7-9.101,9.8-9.601,9.899-29C733.098,496.092,732.798,490.792,732.397,490.792z"/>
	<path fill="#176AAF" d="M829.098,680.692c0,5.699,8.2,8.5,11.399,3.9c2.101-3,2-5.4-0.399-7.801
		C836.197,672.891,829.098,675.391,829.098,680.692z"/>
	<path fill="#FFFFFF" d="M658.397,485.792h-7.899h-8l-6.2,5.899l-6.199,5.8v7.2c0,5.8,0.3,7,1.399,6.399
		c0.699-0.399,7.101-6.3,14.101-13.101L658.397,485.792z"/>
	<path d="M738.598,480.292l-56.8-0.301l-56.801-0.199l0.301,23.199l0.3,23.301l4.1,8.5c7,14.5,16.9,23.399,32.801,29.199
		c7.199,2.7,9.3,3.101,19.101,3.101c9.399,0,12.1-0.399,18.5-2.7c19.199-6.8,31.899-20.1,36.899-38.5c1.899-7,2.101-10.1,1.899-26.8
		L738.598,480.292z M631.498,511.092c-1.101,0.601-1.399-0.601-1.399-6.399v-7.2l6.199-5.8l6.2-5.899h8h7.899l-12.8,12.199
		C638.598,504.792,632.197,510.692,631.498,511.092z M653.998,552.692c-1.101,0.3-8.899-4.801-8.899-5.801c0-0.399,3-3.6,6.8-7.1
		c12.3-11.5,41.601-39.4,49.2-46.7l7.5-7.3h7.8c4.2,0,7.7,0.199,7.7,0.399c0,0.399-6.2,6.399-24.5,23.699
		c-4.9,4.7-17,16.2-26.801,25.5C662.998,544.692,654.498,552.492,653.998,552.692z M732.998,502.492
		c-0.101,19.399-0.2,19.899-9.899,29c-4.601,4.301-10.9,10.301-14.101,13.301c-3.101,3-8.301,8-11.5,11l-5.7,5.5h-9.601
		c-8.6,0-17-1.5-19.399-3.5c-0.399-0.4,7.899-9,18.5-19.101s22.7-21.5,26.801-25.5c19.899-19,23.6-22.399,24.3-22.399
		C732.798,490.792,733.098,496.092,732.998,502.492z"/>
	<path d="M807.598,635.792c2.2,0,3,0.899,5.1,5.5c1.301,3.1,2.4,5.899,2.4,6.399s-2.3,1.699-5.101,2.699
		c-2.699,1-5.399,2.301-5.899,2.9c-1,1.3,1.8,8.5,3.399,8.5c0.601,0,3.101-0.9,5.5-2c5.899-2.7,6.699-2.601,8.399,1.899
		c2.101,5.101,2.899,5.5,7.2,3.699c3.899-1.699,4.199-2.699,2-8l-1.601-3.699l3.8-1.5c7.601-3,8.301-3.399,8.301-4.801
		c0-2.899-2.301-6.6-4.101-6.6c-1,0-4.101,0.899-6.899,2c-4.801,1.899-5.101,1.899-5.7,0.199c-0.3-0.899-1.399-3.699-2.399-6.101
		l-1.899-4.3l2.5-2.899c6.3-7.5,3.5-19.801-5.601-24.399c-3.699-2-11.601-1.9-15.399,0.1c-9.4,4.801-12.3,15.301-6.5,23.4
		C797.598,632.292,803.798,635.792,807.598,635.792z M803.498,616.392c1.3-2.1,2.5-2.6,5.601-2.6c3.1,0,4.3,0.5,5.6,2.6
		c3.602,5.4-2.5,12-8.3,9.2C802.598,623.792,801.298,619.692,803.498,616.392z"/>
	<path d="M854.697,684.891c0.2,0.4,3-0.299,6.2-1.5c4.2-1.6,5.7-2.699,5.7-4.199c0-2-1.7-2.301-6.5-1
		c-2.3,0.602-2.7,0.199-5.2-5.801c-1.6-3.6-2.8-7-2.8-7.599c0-1.2-3-1.301-4.8-0.101c-1,0.601-0.4,2.899,2.8,10.2
		C852.397,679.993,854.397,684.592,854.697,684.891z"/>
	<path d="M828.998,671.292c-2.7,1.5-5.899,6.9-5.899,10.199c0,6,8.199,12,14.699,10.801c2.399-0.4,4.2-0.1,5.899,1
		c2.601,1.699,6.5,1.699,7.101,0c0.101-0.6-1-1.9-2.601-2.9c-2.5-1.699-2.8-2.398-2-4.398c1.9-5,1.101-9.199-2.5-12.801
		c-2.8-2.801-4.1-3.398-7.699-3.398C833.598,669.891,830.397,670.493,828.998,671.292z M840.498,684.592
		c-3.2,4.6-11.399,1.799-11.399-3.9c0-5.301,7.1-7.801,11-3.898C842.498,679.192,842.598,681.592,840.498,684.592z"/>
	<path d="M813.998,695.792c-2.2,0-2.899,0.5-2.899,1.9c0,2.299,2.3,3,7,2c4-0.9,6-3.201,6-6.9c0-3.5-2.5-5.699-7.5-6.5
		c-6.5-1.1-6.9-1.301-5.5-3c0.699-0.9,2.399-1.4,3.899-1.301c2,0.201,2.699-0.199,2.899-2c0.3-2-0.1-2.199-3.6-2.199
		c-2.5,0-4.9,0.801-6.602,2.1c-1.5,1.201-2.6,3-2.6,4.5c0,3.102,3.3,6.4,6.399,6.4c1.399,0,3.699,0.5,5.101,1
		c2.3,0.9,2.5,1.301,1.5,2.5C817.397,695.092,815.598,695.792,813.998,695.792z"/>
	<g id="XMLID_2_">
		<g>
			<path fill="#134C84" d="M1005.558,600.286c0,4.602-0.41,5.801-2.91,8.2c-4.8,4.8-6.891,4.8-17.8-0.5
				c-12.891-6.3-25.391-10.2-36.591-11.6c-9.109-1.101-24.109-0.5-26.609,1.1c-1.09,0.601-0.59,3.9,2.7,16.101
				c20.109,76.5,31.21,159.2,32.909,247.2l0.591,28.701h-2.7h-2.59v-16.801c0-42.1-4.21-98.199-11-148.199
				c-8.71-63.901-27.5-138.001-47.601-187.001c-2.5-6.3-5.5-13.8-6.609-16.5c-3.5-9-24.591-50.8-31.2-61.8
				c-18.891-31.3-37.5-55.7-58.59-76.8c-38.71-38.801-80.5-61.801-124-68.4c-12.301-1.899-24.5-3.8-36-1.899
				c-42.301,6.899-87.301,36.101-113.601,85c-4.061,7.551-9.439,19.851-14.061,31.41c-4.63,11.569-8.5,22.391-9.55,26.989h142.109
				c108,0,142.601,0.301,144.601,1.2c0.53,0.24,4.409,18.819,5.31,21.54c-0.238,5.72-0.789,16.3-2.02,17.76
				c-1.59,1.7-4.09,3-7.79,3.801c-6.71,1.5-8,3.5-8,13c-0.101,38.3-31.101,71-71.8,75.8c-14.91,1.801-35.7,0.601-46.5-2.5
				c-23.41-6.899-41.2-21.601-51.2-42.101c-5.3-10.8-7.3-18.699-8.101-32.6c-0.811-12.2-2.699-16.801-8.311-19.601
				c-3.3-1.7-9-1.801-80.59-2.101c-66.3-0.2-78.101,0-85,1.3c-23.78,4.601-51,25.73-45.6,60.301
				c3.189,20.601,19.39,38.601,40.689,44.899c5.41,1.601,14,1.8,97.91,2.3c91.2,0.5,92,0.5,92,2.5s-0.8,2-68.5,2.301
				c-37.601,0.101-67.71-0.5-68.21,0c-2.29,2.399-9.59,79.5-12.29,138.7c-1.601,34.4-3.41,105.602-3.5,132.701v14.799h-2.5h-2.5
				v-19.5v-19.5l-5.91,2.9c-3.189,1.699-9.09,5.5-13.189,8.5c-5.5,4.199-8.199,5.6-10.699,5.6c-3.5,0-7.11-1.5-8.5-3.398
				c-1.61-2.4-4.7-14.602-5.7-22.602c-5.71-46.398,13.09-107.398,44.399-144.001c6-7.1,6.101-7.5,7.101-23
				c1.2-18,3.5-43.5,5.09-56.299c0.91-7,1.311-13.399,1-14.2c-0.391-1.3-3.689-1.5-20-1.5c-22.3,0-27-0.699-38.3-6.1
				c-26.79-12.7-40.29-43.301-31-70.2c3.41-9.8,8.8-17.8,16.8-25l6.2-5.601l-0.2-16c-0.189-16.8,0.61-20.8,4.61-22.699
				c1-0.5,22.2-1.101,47.09-1.4l45.21-0.5l4-11.5c17.59-50.5,41.79-88.3,70.29-109.8c9.21-7,19.5-12.899,29.5-16.899
				c7.8-3.2,24.21-7.601,32.21-8.601c1.899-0.3,11.79-0.399,22-0.2c15.59,0.2,20.399,0.7,30.899,3c33.391,7.2,63.5,22,93.8,46.101
				c12.301,9.801,34.301,31.801,45.2,45.2c4.601,5.601,9.3,10.399,10.5,10.699c1.101,0.2,5.5,0.9,9.601,1.5
				c23.29,3.301,55.59,15.601,76.5,29.2c39.5,25.5,66.699,62.101,78.79,105.8C1001.958,563.986,1005.558,587.986,1005.558,600.286z
				 M999.058,605.486c1.699-1.8,1.699-3,0.699-15.7c-0.909-11.5-4.609-33.6-6.609-39.3c-12.59-37.399-24.189-56.7-47.3-79.1
				c-21.891-21.2-46-35.602-76.091-45.301c-5.909-1.899-14.699-4.199-19.699-5.101c-4.91-0.8-10-1.8-11.21-2.1
				c-3-0.602-2.891,0.1,0.5,4.5c8.8,11.3,25.5,38.8,36.409,60.1c13.891,27,24.301,52.101,35.7,86l7.601,22.5l4.5-0.5
				c2.5-0.3,9.5-0.399,15.5-0.3c16.289,0.2,32.199,4.399,48.699,12.8C995.647,608.086,996.647,608.187,999.058,605.486z
				 M787.558,477.486c0-11.8-0.21-13.899-1.71-15.2c-2.091-1.8-8.29-3.398-8.391-2.1c0,0.399,0,7.6,0.101,16
				c0.09,9.8-0.301,16-1,17.399c-1.101,2-1.101,2.101,3.199,1.399C787.259,493.786,787.558,493.086,787.558,477.486z
				 M772.558,477.486c0-13.8,0-13.899-2.601-15.899l-2.7-2.101H586.848H406.457l-2.4,2.5c-2.41,2.3-2.5,2.9-2.5,15.2
				c0,7,0.4,13.399,0.79,14c0.61,0.899,2.71,0.5,8.61-1.8c6.1-2.301,10.3-3.2,18-3.7l10.101-0.7l0.29-3.3l0.3-3.2l56.7,0.2
				l56.71,0.3l0.5,3l0.5,3h15.5c17.699,0.101,21,0.9,26.29,6.3c4.71,4.801,5.71,7.801,5.71,16.5c0,9.602,3.199,24.301,6.899,32.301
				c18.101,38.699,64.601,55,103.601,36.399c26.699-12.7,42.5-37.5,42.5-66.7c0-9.1,2.399-12.5,10-14.3
				C772.458,493.586,772.558,493.387,772.558,477.486z M771.147,500.687c0.811-1.2,1.109-2.101,0.7-2.101
				c-11.2,1.699-11.891,2.5-12.591,15.199c-0.699,12.301-3.409,22.5-8.909,32.9c-5.891,11.5-19.29,25.1-30.29,31.1
				c-4.101,2.2-1.601,2.102,4.399-0.199c13.8-5.199,30.3-20.5,37.101-34.5c5.09-10.301,6.899-17.601,7.699-30.101
				C769.558,507.086,770.348,502.086,771.147,500.687z M454.647,722.187c0.609-11.501,0.91-21.101,0.609-21.3
				c-1.5-1.5-16,20.399-23.109,35.001c-9.391,19-17,43.1-19.5,61.898c-4.59,33.4,0.11,68.301,8.609,65
				c0.891-0.398,4.5-2.801,7.891-5.398c3.5-2.602,9.609-6.4,13.7-8.4l7.5-3.701l0.609-24.1
				C451.958,784.587,453.458,745.388,454.647,722.187z"/>
			<path fill="#134C84" d="M999.759,589.786c1,12.7,1,13.9-0.7,15.7c-2.41,2.7-3.41,2.601-11.3-1.5
				c-16.5-8.399-32.41-12.6-48.7-12.8c-6-0.101-13,0-15.5,0.3l-4.5,0.5l-7.601-22.5c-11.399-33.899-21.811-59-35.699-86
				c-10.91-21.3-27.61-48.8-36.41-60.1c-3.391-4.4-3.5-5.102-0.5-4.5c1.21,0.3,6.3,1.3,11.21,2.1c5,0.9,13.79,3.2,19.7,5.101
				c30.09,9.7,54.199,24.101,76.09,45.301c23.109,22.398,34.71,41.699,47.3,79.1C995.147,556.187,998.848,578.286,999.759,589.786z"
				/>
			<path fill="#134C84" d="M792.367,478.227c0.171-4.08,0.19-5.7,0.19,0.16C792.558,478.666,792.487,478.586,792.367,478.227z"/>
			<path fill="#134C84" d="M455.259,700.887c0.3,0.199,0,9.799-0.61,21.3c-1.189,23.201-2.689,62.4-3.689,99l-0.609,24.1l-7.5,3.701
				c-4.09,2-10.2,5.799-13.7,8.4c-3.391,2.6-7,5-7.891,5.398c-8.5,3.301-13.199-31.6-8.609-65c2.5-18.801,10.109-42.898,19.5-61.898
				C439.259,721.287,453.759,699.387,455.259,700.887z"/>
		</g>
	</g>
	<path fill="#FFFFFF" d="M510.764,827.025"/>
	<g>
		<polygon fill="#FFFFFF" points="790.841,891.216 501.072,893.667 506.476,798.175 761.147,782.886 		"/>
		<path fill="#FFFFFF" d="M534.721,689.19c34.044-75.397,131.02-56.114,166.732-11.371"/>
		<path fill="#FFFFFF" d="M722.431,724.796c0,69.68-62.576,166.74-116.332,166.74s-108.092,5.021-103.594-64.512
			c3.547-54.826,16.926-140.458,55.26-163.229C603.98,636.344,722.431,655.116,722.431,724.796z"/>
	</g>
	<g id="XMLID_1_">
		<g>
			<path fill="#176AAF" d="M737.063,837.47c11.996-0.416,24.113,1.342,35.424,5C760.884,839.921,749.029,837.169,737.063,837.47z"/>
			<path fill="#134C84" d="M664.648,861.294c3.841,7.527,5.761,7.527,14.149-0.193c16.676-15.35,33.757-22.492,56.295-23.555
				c0.655-0.039,1.313-0.066,1.971-0.076c11.966-0.301,23.82,2.451,35.424,5c8.308,1.824,14.968,7.211,14.463,4.498
				c0.677,3.455,0.131,0.666,1.021,6.178l-6.771-2.664l-0.021-0.01c-4.396-2.51-23.054-7.51-32.543-8.484
				c-22.235-2.414-44.167,3.967-61.046,17.664c-3.334,2.703-7.479,6.373-9.196,8.109c-2.628,2.605-3.941,3.195-7.479,3.195
				c-7.781,0-9.602-2.221-14.958-18.352c-8.489-25.389-8.187-64.484,0.909-97.498c3.639-13.709,7.58-23.555,14.453-36.675
				c6.468-12.365,12.532-20.658,22.032-30.408l7.275-7.441l4.286-2.027c-0.07-0.057-0.132-0.125-0.202-0.193l14.181-7.691
				c1.546,1.438,2.011,1.854,3.537,3.369l-14.574,9.033c0.322-0.723-0.697-0.047-2.557,1.584l-1.537,0.955
				c-3.437,0-18.191,17.367-25.67,30.021c-7.379,12.638-15.362,33.69-18.8,49.608C651.509,801.55,653.733,839.873,664.648,861.294z"
				/>
			<path fill="#134C84" d="M791.226,879.857c0.707,6.469,1.182,7.857-1.346,7.857c-2.526,0-2.931-3.445-3.709-8.92
				c-1.748-12.395-6.74-28.139-7.953-29.49l2.961,1.168l0.021,0.01c0.374,0.213,0.638,0.406,0.788,0.58l5.983,2.084
				C791.226,879.857,790.699,874.605,791.226,879.857z"/>
			<path fill="#134C84" d="M787.971,853.146l-5.983-2.084c-0.15-0.174-0.414-0.367-0.788-0.58L787.971,853.146z"/>
			<path fill="#176AAF" d="M705.298,684.657c1.859-1.631,2.881-2.307,2.558-1.584L705.298,684.657z"/>
			<path fill="#134C84" d="M703.761,685.612l1.537-0.955c-6.146,5.396-21.457,21.258-27.207,30.979
				C685.569,702.979,700.325,685.612,703.761,685.612z"/>
			<path fill="#134C84" d="M704.914,678.555l-4.286,2.027l4.084-2.221C704.782,678.43,704.843,678.499,704.914,678.555z"/>
			<path fill="#134C84" d="M704.712,678.362l-4.084,2.223l-2.525-2.125c-1.415-1.063-5.457-4.334-8.895-7.145
				c-29.007-23.361-60.942-32.908-92.679-27.705c-33.555,5.503-60.438,34.076-76.608,81.186
				c-7.096,20.977-13.291,53.123-15.666,77.623c-1.719,17.184-3.437,66.125-2.729,75.479l0.708,8.494l-0.041,3.1
				c-2.324,0-5.013-3.484-5.72-9.566c-1.112-10.609,1.313-63.221,4.042-86.291c9.196-77.237,32.948-125.89,71.354-146.355
				c6.57-3.562,20.113-7.904,27.592-8.978C634.399,633.407,672.562,648.466,704.712,678.362z"/>
		</g>
		<g>
			<path fill="none" stroke="#134C84" stroke-width="0.9877" stroke-miterlimit="10" d="M737.063,837.47
				c11.966-0.301,23.82,2.451,35.424,5c8.308,1.824,14.968,7.211,14.463,4.498"/>
			<path fill="none" stroke="#134C84" stroke-width="0.9877" stroke-miterlimit="10" d="M707.854,683.073
				c0.322-0.723-0.697-0.047-2.557,1.584c-6.146,5.396-21.457,21.258-27.207,30.979"/>
			<path fill="none" stroke="#134C84" stroke-width="0.9877" stroke-miterlimit="10" d="M704.712,678.362
				c-32.149-29.895-70.313-44.955-105.252-40.061c-7.479,1.072-21.021,5.416-27.592,8.978
				c-38.404,20.466-62.156,69.119-71.354,146.356c-2.729,23.07-5.154,75.682-4.042,86.291c0.707,6.082,3.396,9.564,5.72,9.564
				l0.041-3.098l-0.708-8.496c-0.707-9.354,1.011-58.295,2.729-75.479c2.375-24.5,8.569-56.646,15.664-77.621
				c16.172-47.11,43.056-75.684,76.609-81.187c31.735-5.203,63.672,4.345,92.679,27.706c3.438,2.811,7.479,6.082,8.895,7.145
				l2.525,2.123"/>
			<path fill="none" stroke="#134C84" stroke-width="0.9877" stroke-miterlimit="10" d="M787.971,853.146
				c-0.891-5.512-0.345-2.723-1.021-6.178"/>
			<path fill="none" stroke="#134C84" stroke-width="0.9877" stroke-miterlimit="10" d="M772.487,842.47
				c-11.311-3.658-23.428-5.416-35.424-5c-0.657,0.01-1.314,0.037-1.971,0.076c-22.539,1.063-39.619,8.205-56.295,23.555
				c-8.39,7.723-10.31,7.723-14.149,0.193c-10.915-21.422-13.14-59.744-5.356-96.053c3.438-15.918,11.422-36.971,18.799-49.608
				c7.479-12.654,22.234-30.021,25.672-30.021l1.535-0.955l2.558-1.584l14.574-9.033c-1.526-1.518-1.991-1.932-3.537-3.369
				l-14.181,7.691l-4.084,2.223l-7.275,7.441c-9.5,9.75-15.564,18.041-22.032,30.408c-6.873,13.118-10.813,22.966-14.453,36.673
				c-9.096,33.016-9.398,72.111-0.909,97.498c5.356,16.131,7.177,18.354,14.958,18.354c3.537,0,4.852-0.59,7.479-3.195
				c1.718-1.738,5.861-5.406,9.197-8.109c16.878-13.697,38.81-20.078,61.045-17.666c9.49,0.977,28.146,5.977,32.543,8.486"/>
			<path fill="none" stroke="#134C84" stroke-width="0.9877" stroke-miterlimit="10" d="M781.179,850.472l-2.961-1.168
				c1.213,1.352,6.205,17.096,7.953,29.49c0.778,5.475,1.184,8.92,3.709,8.92c2.526,0,2.053-1.391,1.346-7.857
				c-0.526-5.252,0,0-3.256-26.711l-6.771-2.664L781.179,850.472z"/>
		</g>
	</g>
	<g>
		<g>
			<path fill="#1781BC" d="M468.616,606.013c-2.425,19.604-4.851,39.211-7.275,58.815c-0.685,5.534,8.604,8.696,9.361,2.559
				c2.425-19.605,4.852-39.21,7.275-58.816C478.662,603.038,469.375,599.876,468.616,606.013L468.616,606.013z"/>
		</g>
	</g>
	<line fill="none" x1="465.502" y1="669.407" x2="457.668" y2="805.462"/>
	<g>
		<line fill="none" x1="465.568" y1="674.891" x2="460.07" y2="764.896"/>
	</g>
	<line fill="none" x1="465.022" y1="754.292" x2="467.841" y2="673.459"/>
	<polygon fill="#176AAF" stroke="#134C84" stroke-width="6.2668" stroke-miterlimit="10" points="456,890.166 504,890.166 
		456.017,889.833 	"/>
	<polygon fill="#176AAF" stroke="#134C84" stroke-width="6.2668" stroke-miterlimit="10" points="790,886.371 956.952,888.941 
		904.419,888.775 	"/>
	<path fill="#1781BC" d="M433.105,490.041c-31.752,0-56.91,22.923-56.91,53.851s21.147,53.567,52.899,53.567"/>
	<path fill="#176AAF" d="M517.598,589.649c0,4.414-26.899,9.203-31.171,9.203l-53.863-1.081c-4.271,0-11.966-3.708-11.966-8.122
		v-91.344c0-4.414,10.395-8.453,14.666-8.453h145.163c19.07,0,14.386,20.984,14.386,11.14L517.598,589.649z"/>
	<path fill="#1781BC" d="M517.598,589.233c0,4.374-26.899,9.119-31.171,9.119l-53.863-1.071c-4.271,0-11.966-3.674-11.966-8.048
		v-90.505c0-4.374,10.395-8.376,14.666-8.376h145.163c19.07,0,14.386,20.792,14.386,11.037L517.598,589.233z"/>
	<path fill="#F7FF00" d="M398.847,486.065c0,4.418,3.582,8,8,8l13.75-7.442c4.418,0,13.75-8.912,13.75-13.33l-6.25-5.579
		c0-4.418-3.582-8-8-8h-13.25c-4.418,0-8,3.582-8,8V486.065z"/>
	<path fill="#1781BC" d="M498.348,457.565c23.25-89.693,82.25-141.683,151.462-147.373c23.267-1.913,135.788,18.235,202.908,141.477
		"/>
	<path fill="#1781BC" d="M802.427,425.141c44.429-20.348,77.912,76.293,100.521,136.151c24.817,65.708,63.996,225.625,21.58,237.788
		"/>
	<path d="M602.795,364.824c16.101,2.101,34.601-18.199,24.9-27.199c-3.7-3.4-12-3.4-18.601,0
		c-8.399,4.399-14.801,12.6-14.801,18.899C594.295,360.424,598.195,364.124,602.795,364.824z"/>
	<path d="M907.197,687.493c0.101-4.199,0-7.9-0.199-8.102c-0.2-0.199-2.601,1.602-5.301,4c-2.6,2.4-7.5,5.701-10.699,7.201
		c-3.2,1.5-5.899,3-5.899,3.398c0,0.4,1.399,1.4,3,2.301c1.699,0.9,3,2.1,3,2.9c0,2.5-6.301,10.699-12.7,16.6
		c-5.899,5.302-17,12.7-17.899,11.802c-0.101-0.201-2.801-6.201-5.899-13.302c-3.1-7.1-6-13.4-6.4-13.801c-1-1-7.699,0.9-8.6,2.301
		c-0.3,0.4,2,6.801,5.1,14c3,7.2,5.301,13.7,5.101,14.401c-1.199,3.1-22.8,4.5-33.699,2.199c-9-1.9-10.601-3.199-8.9-6.9
		c0.7-1.5,1-3,0.7-3.299c-0.399-0.301-3.601,0.398-7.3,1.5c-3.9,1.199-9.5,2.1-13.301,2.1h-6.5l6,5.699
		c3.399,3.201,7.101,7.701,8.2,10c1.199,2.4,2.5,4.301,3,4.301s1.399-1.4,2.101-3c1.399-3.5,2.399-3.6,11.699-1.301
		c4.101,1,11.101,1.602,17.801,1.602c28,0.1,51.399-12,68.5-35.603c2.8-4,4.699-5.699,5.699-5.299
		c0.801,0.299,2.601,0.898,4.101,1.299c2.2,0.5,2.399,0.4,1.8-1.299C907.598,698.092,907.098,694.692,907.197,687.493z"/>
	
		<line fill="none" stroke="#000000" stroke-width="7.2181" stroke-miterlimit="10" x1="438.432" y1="480.792" x2="550.432" y2="480.792"/>
	<polygon fill="#FFFFFF" points="724.098,486.192 654.968,555.792 638.598,543.75 708.598,485.792 	"/>
	
		<line fill="none" stroke="#F7FF00" stroke-width="6" stroke-miterlimit="10" x1="550.358" y1="479.792" x2="565.598" y2="479.792"/>
	
		<ellipse transform="matrix(-0.4384 0.8988 -0.8988 -0.4384 1673.6879 438.7186)" fill="#1781BC" cx="699.776" cy="742.267" rx="70.169" ry="31.333"/>
	<path fill="#1781BC" d="M654.968,812.628c0,29.592,6.819,53.811,15.131,53.811c8.31,0,14.962-24.219,14.962-53.811
		c0-29.596-8.319-59.336-16.63-59.336C660.121,753.292,654.968,783.035,654.968,812.628z"/>
	<path fill="#1781BC" d="M722.431,763.439c-50.376,9.793-49.152,101.689-48.252,100.98c18.726-14.75,26.777-22.643,56.113-26.545
		c28.806-3.832,57.892,15.074,56.306,6.918C783.393,828.296,770.953,754.007,722.431,763.439z"/>
	<g>
		<line fill="none" x1="466.021" y1="666.108" x2="460.07" y2="850.792"/>
		<g>
			<path fill="#1781BC" d="M461.675,667.274c-1.604,49.74-3.206,99.483-4.81,149.228c-0.381,11.818-0.762,23.639-1.143,35.457
				c-0.058,1.744,8.603,0.48,8.692-2.33c1.604-49.74,3.206-99.482,4.81-149.228c0.381-11.818,0.762-23.639,1.143-35.458
				C470.425,663.198,461.766,664.463,461.675,667.274L461.675,667.274z"/>
		</g>
	</g>
	<ellipse fill="#134C84" cx="767.021" cy="379.806" rx="8.923" ry="4.014"/>
	<ellipse fill="#134C84" cx="739.027" cy="395.056" rx="6.01" ry="11.236"/>
	<ellipse fill="#134C84" cx="777.104" cy="410.747" rx="15.006" ry="7.954"/>
	<ellipse fill="#134C84" cx="840.908" cy="853.399" rx="11.812" ry="9.604"/>
	<path fill="#134C84" d="M884.098,805.462c11.715,10.184,11.479,21.131,9.991,22.844c-1.489,1.713-10.703,4.67-22.418-5.514
		s-21.498-29.652-20.008-31.365S872.384,795.279,884.098,805.462z"/>
	<ellipse fill="#134C84" cx="826.074" cy="789.25" rx="9.47" ry="17.597"/>
</g>
</svg>
